<?xml version="1.0" standalone="no"?>
<!DOCTYPE svg PUBLIC "-//W3C//DTD SVG 20010904//EN"
 "http://www.w3.org/TR/2001/REC-SVG-20010904/DTD/svg10.dtd">
<svg version="1.0" xmlns="http://www.w3.org/2000/svg"
 width="172.276140pt" height="198.425197pt" viewBox="0 0 172.276140 198.425197"
 preserveAspectRatio="xMidYMid meet">
<metadata>
Created by potrace 1.13, written by Peter Selinger 2001-2015
</metadata>
<g transform="translate(0.000000,198.425197) scale(0.013983,-0.013983)"
fill="#000000" stroke="none">
<path d="M6157 14097 c-96 -37 -213 -128 -283 -221 -72 -94 -134 -186 -160
-236 -11 -19 -33 -55 -50 -80 -17 -25 -45 -76 -62 -115 -16 -38 -58 -133 -91
-209 -34 -77 -70 -165 -81 -195 l-18 -55 -104 -23 c-163 -36 -373 -136 -482
-230 l-40 -33 -20 32 c-118 193 -242 369 -375 528 -39 47 -95 117 -125 155
-29 39 -66 82 -82 97 -16 14 -54 52 -84 82 -86 88 -145 95 -245 31 -74 -48
-137 -173 -164 -325 -21 -123 -23 -483 -2 -580 60 -276 83 -370 118 -470 32
-92 125 -282 181 -369 37 -60 40 -67 27 -90 -7 -14 -17 -42 -23 -61 -6 -19
-27 -79 -47 -134 -31 -86 -74 -261 -90 -366 -3 -19 -12 -82 -20 -140 -9 -58
-25 -206 -35 -330 -33 -369 -65 -676 -75 -710 -6 -19 -32 -214 -40 -300 -3
-36 -10 -90 -16 -120 -5 -30 -18 -113 -30 -185 -11 -71 -22 -132 -24 -135 -2
-3 -20 -87 -40 -185 -20 -99 -52 -243 -70 -320 -19 -77 -44 -198 -55 -270 -28
-173 -29 -175 -42 -175 -6 0 -105 60 -219 133 -115 72 -249 156 -297 186 -48
29 -103 66 -122 81 -19 15 -57 39 -83 55 -110 63 -141 121 -240 440 -14 44
-37 125 -52 180 -59 219 -84 291 -110 315 -55 51 -140 17 -181 -74 -24 -55
-64 -254 -64 -323 0 -52 -15 -61 -68 -44 -45 15 -181 52 -322 88 -120 30 -301
42 -362 24 -49 -15 -60 -37 -49 -97 12 -64 40 -86 148 -119 171 -51 324 -130
185 -95 -97 24 -280 50 -361 50 -93 0 -191 -22 -233 -52 -39 -27 -38 -72 5
-134 41 -59 63 -71 200 -114 59 -18 107 -37 107 -41 0 -5 -21 -7 -47 -5 -73 5
-241 -19 -305 -43 -78 -30 -104 -70 -87 -136 21 -85 78 -106 401 -155 106 -16
216 -37 243 -46 l50 -18 -35 -7 c-19 -5 -62 -11 -95 -14 -154 -15 -360 -65
-420 -103 -57 -35 -95 -73 -95 -94 0 -28 26 -73 52 -90 13 -8 50 -23 83 -33
51 -15 101 -17 335 -17 151 1 306 -2 345 -6 l70 -7 6 -38 c8 -53 51 -107 111
-142 60 -35 91 -77 248 -346 52 -89 142 -235 200 -324 141 -217 144 -221 244
-370 48 -71 97 -146 107 -165 11 -19 44 -73 74 -120 29 -47 65 -108 79 -135
14 -28 50 -95 81 -150 l55 -100 -5 -145 c-6 -162 -9 -204 -31 -439 -21 -231
-21 -619 1 -736 9 -49 21 -117 26 -150 5 -33 14 -78 20 -100 12 -48 178 -552
212 -645 53 -145 176 -389 269 -536 102 -161 109 -174 103 -185 -4 -5 -15 -9
-26 -9 -53 0 -174 -78 -246 -158 -30 -33 -43 -43 -46 -32 -33 105 -53 143 -95
181 -48 42 -111 74 -166 84 -66 13 -186 -37 -253 -106 -55 -55 -79 -108 -88
-191 l-7 -66 -38 13 c-55 20 -186 37 -220 30 -110 -24 -236 -133 -269 -233
-12 -34 -21 -76 -21 -94 0 -36 29 -99 63 -135 11 -13 18 -25 15 -28 -2 -3 -28
-9 -58 -15 -57 -11 -133 -51 -193 -102 -31 -27 -42 -46 -58 -103 -25 -93 -12
-164 47 -241 27 -35 115 -78 182 -89 44 -7 51 -18 28 -44 -21 -24 -66 -140
-73 -187 -16 -115 127 -216 273 -194 33 5 77 16 99 24 71 27 72 26 77 -69 7
-99 23 -134 88 -184 44 -33 47 -33 118 -28 41 3 84 13 97 21 13 9 29 16 35 16
25 0 109 67 181 144 l76 80 36 -54 c37 -59 87 -110 126 -130 48 -25 142 -31
219 -14 67 15 76 20 117 67 40 46 95 163 95 203 0 18 -3 18 84 -11 47 -16 97
-25 136 -25 72 0 71 8 9 -133 -21 -48 -39 -90 -39 -94 0 -12 -135 -218 -199
-303 -66 -89 -108 -132 -227 -234 -204 -174 -463 -268 -749 -270 -174 -1 -277
30 -474 144 -149 85 -452 343 -561 477 -35 43 -70 84 -79 91 -13 10 -13 18 -3
55 31 105 33 121 22 212 -17 136 -57 289 -92 353 -84 154 -166 263 -256 339
-31 26 -72 63 -92 81 -35 33 -141 92 -164 92 -17 0 -56 -43 -56 -61 0 -8 25
-52 56 -98 74 -110 164 -304 149 -319 -8 -8 -32 27 -66 98 -98 202 -342 470
-428 470 -25 0 -62 -54 -54 -79 3 -9 28 -64 55 -123 26 -59 48 -112 48 -118 0
-6 -36 20 -81 57 -174 147 -228 185 -344 242 -181 90 -202 95 -225 50 -19 -35
24 -153 96 -266 82 -128 109 -165 198 -273 53 -63 96 -119 96 -123 0 -5 -18 2
-40 14 -47 27 -119 94 -210 197 -58 66 -68 73 -91 67 -15 -4 -31 -17 -37 -29
-11 -24 0 -120 16 -139 6 -7 24 -47 42 -90 38 -92 128 -233 193 -303 25 -27
44 -50 42 -53 -3 -2 -25 14 -50 35 -65 55 -106 84 -120 84 -20 0 -65 -40 -65
-57 0 -24 60 -129 119 -208 67 -88 148 -172 231 -238 36 -28 67 -54 70 -58 3
-3 28 -22 57 -41 79 -54 180 -92 382 -143 182 -47 185 -47 310 -42 l127 6 148
-150 c81 -83 171 -166 200 -185 54 -36 202 -140 338 -239 46 -33 113 -73 148
-89 36 -16 73 -33 84 -38 47 -24 103 -41 196 -59 152 -30 314 -35 500 -15 164
17 170 18 290 61 78 28 338 158 368 185 20 17 62 48 130 93 63 42 211 186 281
272 136 168 259 375 391 658 59 127 74 172 123 367 69 274 75 308 78 405 3 93
6 97 57 73 38 -18 48 -31 91 -117 27 -53 62 -120 80 -149 17 -29 31 -55 31
-58 0 -6 100 -153 131 -193 32 -40 25 -44 -66 -38 -70 5 -96 2 -147 -15 -117
-38 -236 -167 -239 -258 -2 -64 18 -129 50 -160 26 -26 61 -74 61 -84 0 -2
-31 -13 -69 -25 -141 -43 -221 -91 -270 -163 -73 -106 -94 -157 -95 -234 -1
-66 1 -75 30 -111 43 -53 98 -72 212 -72 50 -1 92 -2 92 -4 0 -2 -15 -34 -34
-73 -50 -102 -53 -131 -22 -217 45 -123 91 -153 225 -145 100 6 136 26 241
132 47 47 88 86 91 86 4 0 12 -13 19 -30 32 -78 67 -117 135 -150 133 -65 241
-39 351 84 l53 60 46 -43 c85 -78 228 -121 436 -128 126 -5 177 0 314 27 135
26 240 73 384 169 50 33 108 70 129 81 86 47 276 169 344 222 40 31 109 84
153 118 152 115 221 175 317 276 97 103 115 136 120 224 2 40 -47 129 -120
216 -61 74 -87 104 -207 244 -87 103 -180 244 -264 404 -43 82 -50 101 -37
108 8 4 56 17 108 28 51 11 125 31 163 45 39 15 95 34 125 44 30 10 123 52
205 93 83 42 166 79 185 83 47 10 416 132 449 149 14 7 64 23 111 35 86 23
251 82 299 107 14 8 32 14 39 14 7 0 35 11 61 25 27 13 71 33 97 43 89 35 224
92 272 113 116 53 465 231 568 290 l51 29 41 -38 c81 -75 192 -91 329 -47 43
14 83 25 88 25 6 0 9 -24 7 -60 -4 -70 20 -191 47 -235 10 -17 44 -48 76 -70
53 -37 63 -40 124 -40 53 0 77 6 123 29 62 31 138 98 184 160 l28 39 56 -61
c79 -88 162 -125 275 -124 89 0 120 11 186 64 20 16 49 52 63 79 38 69 35 167
-9 304 -18 55 -31 102 -30 104 2 1 18 -4 36 -13 91 -45 284 -46 405 0 126 47
173 105 174 214 0 58 -25 113 -82 178 -33 39 -177 132 -240 156 -50 18 -60 32
-30 43 108 38 205 103 261 176 50 64 19 269 -51 334 -71 67 -310 108 -456 80
l-42 -9 21 54 c11 29 26 59 32 67 7 8 12 50 12 105 0 79 -3 97 -27 141 -51 96
-148 164 -234 165 -87 0 -227 -75 -306 -163 l-36 -42 -54 52 c-88 87 -127 107
-223 119 -46 5 -55 3 -110 -33 -33 -22 -67 -53 -75 -69 -8 -16 -23 -40 -33
-53 -9 -14 -26 -44 -37 -68 -11 -25 -23 -42 -28 -39 -13 8 -36 68 -76 191 -91
286 -155 426 -255 553 -78 98 -225 192 -301 192 -35 0 -77 -19 -101 -46 -30
-34 -51 -160 -55 -337 -2 -93 -6 -173 -9 -177 -3 -4 -5 -125 -6 -268 -1 -302
7 -281 -111 -312 -42 -11 -104 -32 -137 -46 -34 -15 -64 -24 -68 -20 -4 3 5
82 20 174 32 195 47 363 47 517 0 118 -47 553 -80 749 l-20 119 52 61 c177
206 406 449 524 556 33 30 96 79 139 109 112 77 133 77 310 11 77 -29 149 -59
160 -66 26 -17 241 -82 333 -101 90 -19 146 -10 174 28 28 37 16 57 -120 197
-66 67 -110 120 -98 116 26 -9 147 -42 201 -55 73 -19 152 -15 182 7 71 53 38
140 -80 218 -66 43 -242 148 -285 170 -19 10 -31 20 -28 23 6 6 186 -23 231
-38 98 -33 255 -27 288 9 32 35 30 64 -9 122 -46 70 -93 106 -224 171 -58 28
-117 60 -132 70 -14 11 -34 19 -43 19 -9 0 -28 9 -42 19 -13 11 -49 25 -79 32
-96 22 -63 32 79 24 173 -10 188 -10 283 -1 91 8 117 21 117 58 0 73 -55 143
-158 200 -84 48 -136 69 -245 101 -229 68 -359 81 -627 62 -107 -7 -100 -16
-78 101 13 74 14 150 1 234 -13 89 -107 226 -172 250 -62 24 -136 5 -152 -39
-13 -34 -58 -203 -72 -266 -35 -163 -147 -415 -207 -464 -19 -16 -72 -43 -117
-60 -353 -133 -429 -160 -491 -174 -38 -9 -128 -30 -198 -47 -160 -38 -179
-38 -207 -2 -12 15 -74 97 -139 182 -64 85 -174 228 -243 317 l-126 161 31 12
c18 6 47 18 65 26 18 8 37 14 42 14 6 0 34 12 63 26 28 14 69 32 89 39 174 64
294 125 453 231 155 102 187 129 355 296 102 101 203 206 225 233 21 28 57 71
79 96 116 131 156 178 156 186 0 4 10 18 23 29 22 21 39 53 91 164 14 30 30
63 36 73 25 42 30 53 36 67 3 8 10 23 15 32 5 10 9 24 9 31 0 7 5 18 11 24 15
15 78 206 90 273 26 146 14 440 -26 650 -33 173 -143 387 -310 603 -62 79
-229 184 -363 227 -221 71 -589 46 -814 -54 -112 -50 -139 -54 -226 -31 -31 8
-100 24 -152 35 -119 26 -409 141 -605 241 -295 150 -382 196 -426 225 -48 32
-61 40 -129 80 -65 38 -225 160 -295 223 -33 30 -102 88 -152 128 -93 74 -111
100 -100 146 3 12 9 54 13 92 3 39 8 73 10 77 5 7 32 212 32 238 0 20 17 114
30 170 27 110 35 222 28 402 -11 312 -16 338 -72 395 -24 24 -56 48 -70 53
-40 16 -104 11 -167 -13z m162 -91 c35 -37 42 -84 48 -329 6 -229 1 -300 -33
-444 -8 -34 -19 -101 -24 -150 -5 -48 -16 -133 -25 -188 -27 -176 -35 -233
-35 -259 0 -26 80 -113 155 -168 22 -16 73 -59 114 -96 63 -57 156 -130 286
-227 15 -11 49 -32 77 -47 27 -16 74 -44 106 -65 31 -20 98 -58 147 -85 120
-65 531 -268 542 -268 5 0 58 -21 118 -46 127 -52 212 -78 325 -97 9 -2 26
-10 38 -19 l23 -16 -33 -19 c-18 -10 -41 -22 -50 -26 -28 -10 -23 -63 6 -82
23 -15 28 -14 107 31 256 145 347 180 529 202 107 13 370 5 370 -12 0 -5 16
-6 34 -3 27 4 52 -3 113 -32 43 -21 89 -42 103 -46 60 -18 238 -186 309 -291
101 -150 158 -342 197 -664 8 -75 5 -248 -6 -315 -19 -105 -54 -191 -164 -400
-9 -16 -16 -36 -16 -43 0 -30 -63 -144 -126 -228 -124 -165 -530 -597 -597
-636 -7 -3 -30 -24 -53 -45 -56 -53 -266 -193 -346 -231 -37 -17 -105 -45
-152 -61 -47 -17 -102 -39 -124 -50 -39 -20 -189 -79 -252 -99 -105 -33 -339
-86 -431 -98 -59 -7 -124 -17 -145 -23 -64 -17 -288 -32 -439 -30 -126 2 -357
24 -455 43 -290 58 -540 145 -710 246 -52 32 -142 82 -200 112 -58 31 -141 75
-185 98 -96 52 -362 230 -460 308 -67 54 -94 77 -233 207 -35 33 -95 108 -138
173 -56 83 -85 118 -111 130 -30 14 -35 14 -43 2 -15 -23 -12 -34 14 -71 14
-19 54 -77 89 -130 63 -93 79 -111 245 -263 86 -79 243 -201 324 -252 26 -16
81 -53 123 -82 41 -29 155 -93 253 -144 97 -50 184 -96 192 -103 99 -77 362
-195 545 -245 44 -12 109 -30 145 -40 161 -47 411 -75 660 -74 189 1 239 5
460 38 58 9 141 21 185 27 44 6 109 19 145 30 128 37 130 37 173 -23 60 -84
197 -265 255 -337 127 -158 214 -276 309 -421 55 -85 116 -177 134 -205 47
-71 135 -218 157 -262 11 -21 47 -90 81 -153 34 -63 80 -158 101 -210 21 -52
56 -135 77 -185 117 -265 178 -570 231 -1145 5 -52 8 -138 6 -190 -6 -180 -14
-345 -19 -370 -2 -14 -11 -68 -20 -120 -9 -52 -23 -120 -31 -151 -8 -31 -14
-71 -14 -89 0 -17 -4 -39 -9 -48 -5 -9 -16 -67 -25 -129 -15 -102 -70 -302
-96 -346 -14 -24 8 -71 36 -75 11 -2 27 5 36 15 33 37 95 242 123 405 12 74
118 146 282 193 169 48 162 32 168 362 10 518 21 699 46 744 29 55 135 15 239
-90 94 -95 167 -243 263 -531 86 -258 113 -329 156 -420 31 -65 95 -232 132
-345 18 -52 20 -82 17 -215 -3 -149 -4 -157 -33 -214 -54 -107 -204 -211 -785
-539 -93 -52 -526 -266 -560 -275 -45 -14 -151 -56 -215 -87 -98 -47 -281
-117 -365 -140 -47 -13 -105 -31 -130 -40 -79 -29 -190 -65 -202 -65 -7 0 35
46 93 103 114 110 253 262 283 308 15 24 16 32 5 45 -33 40 -43 37 -127 -49
-44 -45 -103 -110 -132 -145 -65 -80 -334 -300 -419 -344 -14 -7 -44 -25 -66
-39 -56 -36 -239 -120 -375 -173 -119 -46 -215 -69 -333 -81 -61 -7 -69 -10
-82 -36 -8 -15 -15 -35 -15 -44 0 -34 170 -343 251 -454 38 -52 153 -194 315
-386 138 -164 137 -186 -30 -350 -178 -176 -415 -356 -686 -520 -52 -32 -143
-89 -201 -127 -200 -130 -365 -177 -624 -179 -99 -1 -139 4 -230 26 -111 27
-188 62 -198 89 -12 30 39 71 126 104 46 18 100 42 118 55 34 23 144 87 254
148 157 87 220 154 220 236 0 55 -11 63 -160 111 -227 74 -526 228 -705 363
-14 10 -41 28 -61 39 -21 10 -43 25 -50 33 -8 7 -50 40 -94 74 -96 73 -287
267 -342 349 -87 129 -203 349 -203 386 0 14 -11 35 -25 48 -14 13 -25 31 -25
39 0 24 -38 81 -54 81 -8 0 -23 -11 -34 -24 l-19 -25 -104 70 c-237 159 -398
292 -614 505 -77 77 -169 177 -204 224 -175 231 -213 284 -282 400 -84 140
-205 384 -251 505 -16 44 -70 202 -119 350 -76 229 -94 297 -120 450 -31 179
-31 182 -26 460 3 154 10 327 16 385 6 58 17 206 25 330 l15 224 -33 56 c-37
60 -81 142 -144 262 -22 43 -65 115 -95 160 -29 46 -77 119 -105 163 -28 44
-74 114 -102 155 -28 41 -95 143 -149 225 -125 193 -132 204 -152 240 -8 17
-46 78 -82 138 -37 59 -67 111 -67 115 0 4 -11 24 -25 43 -15 19 -36 54 -48
79 -24 48 -91 120 -112 120 -8 0 -30 16 -51 35 -33 31 -36 39 -31 72 14 97
-23 105 -463 107 -283 2 -332 4 -377 20 -29 10 -53 19 -53 21 0 14 85 50 167
71 164 42 221 50 591 83 78 7 92 16 92 63 0 31 23 22 -270 101 -92 25 -244 57
-345 72 -174 26 -220 35 -277 57 -61 23 -17 56 103 77 88 15 199 14 317 -3 53
-8 144 -17 202 -21 58 -3 147 -15 197 -27 75 -16 96 -18 108 -8 22 18 19 67
-4 80 -33 17 -354 126 -457 155 -295 82 -358 104 -369 133 -8 21 1 28 50 42
118 33 427 -18 748 -123 139 -45 147 -45 147 16 0 39 -69 103 -166 152 -43 22
-104 54 -134 70 -72 41 -123 61 -254 105 -60 20 -111 41 -114 48 -6 20 165 15
271 -8 188 -42 425 -117 435 -138 5 -9 17 -47 26 -84 10 -36 38 -101 62 -142
39 -67 48 -76 73 -76 54 0 56 21 12 103 -58 104 -71 155 -77 292 -8 168 32
383 76 410 13 8 36 -40 59 -126 32 -120 88 -306 125 -419 69 -214 94 -272 128
-307 41 -43 195 -149 433 -298 99 -62 203 -128 232 -146 28 -19 95 -61 149
-94 53 -33 112 -75 131 -92 41 -40 55 -41 82 -6 20 25 21 27 4 52 -9 14 -22
32 -29 39 -9 8 -11 29 -7 65 6 56 47 286 62 352 119 513 167 764 206 1085 13
113 31 248 39 301 8 53 22 168 31 255 9 87 18 177 20 199 3 22 14 144 25 270
27 308 47 432 104 660 23 91 105 287 126 300 19 11 10 47 -20 85 -16 21 -30
42 -30 48 0 5 -9 21 -20 35 -35 44 -137 258 -169 352 -31 93 -76 268 -107 415
-27 126 -25 487 4 617 36 159 100 253 175 253 22 0 44 -17 106 -82 43 -46 100
-110 127 -143 26 -33 57 -69 67 -80 37 -39 249 -318 291 -383 174 -271 247
-412 271 -529 8 -41 28 -57 60 -49 44 11 48 45 16 138 -16 46 -36 99 -45 117
-17 32 -17 33 9 67 26 34 37 43 110 91 72 47 228 114 325 140 78 21 121 26
241 28 81 1 151 5 158 9 16 10 14 52 -5 70 -14 15 -66 21 -137 16 -51 -3 -48
12 53 250 86 206 181 373 316 557 80 110 122 148 217 199 79 43 142 46 176 10z
m3716 -5356 c20 -12 44 -43 65 -84 29 -59 32 -73 32 -153 0 -48 -5 -108 -11
-133 -6 -25 -14 -108 -17 -185 -6 -125 -5 -143 10 -158 21 -20 59 -22 74 -4 7
8 8 26 3 48 -10 42 1 75 26 83 69 21 290 27 428 11 81 -10 252 -54 357 -92 98
-37 208 -109 208 -137 0 -21 -104 -29 -220 -18 -109 10 -541 15 -565 6 -9 -4
-23 -20 -31 -36 -14 -26 -14 -32 0 -53 19 -30 55 -41 186 -59 58 -8 134 -24
169 -36 35 -11 71 -20 80 -20 9 0 66 -25 127 -56 212 -108 289 -154 312 -187
l22 -32 -29 -9 c-19 -5 -55 -3 -107 8 -44 9 -128 26 -189 37 -60 11 -157 31
-215 46 -156 38 -180 42 -237 43 -87 0 -113 -45 -67 -115 17 -26 64 -45 184
-73 102 -24 198 -67 347 -159 216 -132 244 -161 147 -155 -74 5 -258 58 -454
132 -265 100 -295 106 -309 68 -4 -12 -6 -30 -3 -40 7 -30 67 -72 142 -102
126 -49 318 -174 395 -258 30 -32 55 -63 55 -69 0 -28 -181 12 -330 73 -366
151 -398 159 -478 121 -123 -57 -351 -266 -642 -586 l-134 -149 -12 29 c-7 15
-22 64 -35 108 -13 44 -40 121 -60 170 -20 50 -54 131 -74 180 -49 119 -119
267 -160 335 -18 30 -52 91 -75 135 -24 44 -94 162 -157 263 -63 102 -112 186
-110 188 2 2 39 13 83 23 43 11 138 33 209 50 122 30 420 134 583 204 115 50
137 73 207 222 73 154 79 171 161 485 31 122 43 131 109 90z m1477 -3712 c32
-17 69 -45 81 -62 26 -37 35 -136 17 -193 -19 -59 -98 -189 -150 -246 -26 -29
-52 -62 -58 -74 -24 -45 -10 -103 25 -103 7 0 37 22 66 50 61 58 135 106 192
127 59 21 226 16 305 -8 82 -26 97 -38 124 -100 43 -99 33 -142 -47 -216 -52
-48 -80 -64 -167 -93 -36 -12 -69 -25 -75 -29 -5 -4 -30 -13 -55 -20 -86 -26
-135 -55 -138 -84 -4 -31 3 -33 128 -41 136 -9 257 -57 358 -143 59 -51 82
-88 82 -133 0 -109 -119 -173 -320 -174 -101 0 -108 1 -183 36 -42 21 -98 53
-124 73 -56 43 -93 44 -104 3 -5 -18 -2 -32 10 -45 33 -37 89 -120 115 -170
28 -56 40 -105 50 -198 6 -57 4 -64 -25 -108 -44 -67 -99 -97 -177 -97 -121 0
-206 55 -264 171 -31 63 -38 88 -43 164 -4 54 -13 100 -23 117 -17 29 -45 37
-58 16 -12 -19 -13 -116 -2 -194 9 -64 8 -74 -12 -114 -32 -62 -114 -145 -173
-175 -85 -42 -156 -30 -211 35 -79 95 -48 308 62 432 38 42 43 51 35 75 -5 14
-17 31 -27 37 -14 9 -25 3 -63 -39 -25 -27 -62 -67 -82 -89 -41 -45 -127 -88
-223 -113 -63 -16 -69 -16 -122 0 -61 20 -95 53 -73 73 6 7 42 28 78 48 143
75 316 196 403 282 32 32 62 76 84 124 l34 75 13 -43 c16 -53 39 -89 79 -125
42 -39 76 -52 171 -67 79 -12 82 -12 190 20 195 58 252 94 330 211 29 41 35
60 35 102 0 125 -93 213 -256 241 -146 26 -294 0 -397 -68 -68 -45 -80 -59
-122 -137 l-35 -64 0 55 c-1 161 -48 352 -138 565 -38 90 -36 170 5 258 38 79
61 111 105 144 60 43 148 24 235 -51 62 -54 69 -88 48 -256 -9 -74 -15 -149
-13 -165 3 -26 7 -30 33 -30 41 0 52 28 65 166 12 133 32 196 79 251 67 78
178 144 250 147 7 1 40 -13 73 -31z m-8448 -1759 c25 -12 56 -34 70 -48 53
-56 78 -206 52 -308 -21 -80 -20 -92 7 -102 30 -12 63 19 72 67 10 57 39 115
91 185 81 108 187 166 279 153 37 -6 48 -15 101 -82 32 -42 64 -84 71 -93 14
-19 -6 -120 -29 -149 -22 -28 -36 -45 -83 -106 -35 -46 -45 -68 -45 -97 0 -52
30 -62 68 -23 41 41 104 64 204 75 160 16 197 1 221 -93 38 -145 41 -208 11
-208 -7 0 -31 -17 -52 -39 -52 -52 -123 -87 -216 -104 -42 -8 -78 -16 -80 -18
-1 -2 -12 -16 -23 -32 -19 -24 -21 -65 -4 -68 3 -1 26 -3 49 -5 54 -5 130 -45
194 -103 85 -76 89 -96 46 -231 -40 -123 -105 -160 -224 -125 -94 27 -136 64
-183 162 -23 46 -41 91 -41 99 0 8 -8 14 -17 14 -22 0 -53 -29 -53 -49 0 -24
28 -101 51 -143 32 -60 30 -139 -8 -220 -38 -82 -63 -99 -152 -106 -137 -9
-187 20 -252 149 -36 73 -39 85 -39 163 l0 84 -37 7 c-53 10 -62 -7 -56 -105
6 -75 4 -82 -22 -122 -54 -82 -106 -137 -170 -177 -106 -67 -189 -71 -248 -13
-28 28 -31 37 -31 99 0 56 5 80 30 133 39 82 81 131 134 155 67 30 66 74 -3
103 -26 11 -31 9 -77 -36 -28 -26 -65 -69 -82 -97 -57 -86 -163 -138 -284
-139 -61 -1 -76 3 -113 27 -59 39 -64 59 -34 137 44 120 122 177 301 220 39
10 42 13 42 44 0 55 -25 58 -154 18 -94 -28 -120 -32 -171 -27 -124 13 -194
49 -220 112 -56 135 57 251 255 260 89 5 303 -26 324 -47 17 -17 49 -11 79 15
37 33 32 58 -13 66 -237 43 -313 72 -380 146 -33 35 -40 50 -40 83 0 84 67
177 165 227 45 23 57 25 130 19 54 -4 94 -13 125 -29 55 -28 118 -108 126
-159 8 -45 25 -62 54 -53 35 11 45 47 25 86 -55 106 -79 240 -54 306 17 47 61
103 93 121 99 54 146 58 220 21z m881 -379 c27 -27 47 -51 44 -53 -2 -3 -39
-7 -81 -11 l-76 -7 20 53 c23 61 27 68 36 68 4 0 30 -22 57 -50z m483 -419
c72 -55 141 -105 152 -111 42 -22 52 -70 40 -187 -13 -125 -34 -241 -61 -338
-11 -38 -26 -97 -34 -130 -26 -114 -55 -183 -169 -415 -161 -324 -338 -571
-517 -718 -235 -194 -529 -333 -754 -357 -33 -3 -87 -11 -120 -16 -63 -11
-273 -5 -367 11 -70 11 -185 50 -278 93 -80 36 -130 69 -288 187 -55 41 -132
98 -172 125 -63 44 -305 281 -401 393 -44 52 -70 53 -113 7 -31 -33 -38 -35
-95 -35 -33 0 -80 5 -103 10 -167 40 -331 85 -373 103 -52 22 -140 74 -165 98
-8 8 -42 37 -75 64 -97 81 -201 195 -178 195 5 0 44 -14 86 -30 93 -36 153
-39 191 -9 14 11 26 26 26 34 0 7 -21 31 -47 52 -27 21 -61 50 -78 66 -16 15
-61 55 -99 90 -38 34 -85 85 -106 112 -46 63 -94 144 -88 151 3 2 47 -26 99
-64 140 -102 285 -199 322 -217 84 -40 134 -38 158 7 11 21 3 31 -128 158
-156 150 -320 340 -419 486 -36 53 -95 165 -92 175 4 12 147 -62 217 -113 154
-113 336 -287 399 -383 76 -116 123 -175 141 -175 24 0 41 20 41 47 0 22 -76
208 -155 378 -56 121 -58 127 -37 116 45 -24 173 -193 222 -291 14 -30 40 -77
57 -105 17 -27 41 -70 55 -95 16 -32 31 -46 48 -49 14 -1 27 -6 30 -11 13 -19
47 -19 65 0 17 19 18 27 6 112 -13 99 -36 177 -81 271 -16 34 -27 63 -25 66 9
8 98 -73 149 -137 29 -37 70 -98 91 -137 21 -38 44 -77 51 -85 22 -26 62 -191
74 -301 10 -91 9 -111 -4 -143 -13 -30 -19 -36 -36 -31 -28 9 -58 -2 -65 -25
-8 -26 39 -100 83 -130 21 -14 80 -68 132 -120 122 -121 446 -400 465 -400 2
0 23 -12 47 -28 72 -46 81 -51 143 -81 104 -51 154 -70 213 -81 31 -7 75 -16
97 -21 78 -16 186 -8 380 28 140 26 354 112 435 175 103 81 220 181 261 224
113 119 256 331 318 471 27 59 65 144 86 188 71 154 145 413 181 635 12 77 15
138 11 228 -5 99 -3 123 7 119 7 -3 72 -50 144 -106z m-263 -226 c-8 -49 -15
-97 -15 -105 0 -8 -4 -21 -9 -29 -7 -11 -25 -1 -82 44 -41 31 -75 61 -77 65
-2 5 21 21 50 36 29 15 70 42 92 61 21 19 42 31 46 26 5 -4 2 -48 -5 -98z
m1047 -675 c31 -12 73 -39 95 -59 143 -139 442 -336 722 -476 95 -47 171 -89
168 -91 -3 -3 -47 -7 -99 -9 -51 -2 -96 -4 -99 -4 -4 -1 -9 -10 -12 -21 -7
-26 25 -66 59 -74 40 -10 100 -52 131 -91 15 -19 28 -37 28 -40 0 -8 -150
-100 -210 -130 -97 -48 -161 -24 -268 101 -40 46 -75 84 -79 84 -3 0 -11 -15
-17 -33 -10 -29 -8 -41 14 -89 42 -92 48 -149 24 -221 -27 -83 -51 -116 -115
-161 -74 -51 -109 -55 -193 -22 -62 24 -71 31 -97 79 -38 69 -41 169 -6 216
29 40 28 69 -2 83 -32 14 -54 5 -67 -29 -39 -105 -82 -173 -162 -255 -98 -101
-132 -118 -232 -118 -80 0 -92 7 -120 73 -22 53 -19 76 20 155 40 80 103 154
175 207 52 38 70 78 50 114 -15 29 -38 26 -106 -15 -159 -96 -217 -114 -319
-95 -78 15 -90 28 -89 99 2 102 82 211 197 266 82 40 211 76 272 76 57 0 105
25 105 54 0 31 -25 49 -85 65 -66 16 -106 43 -139 90 -40 58 -44 108 -13 158
36 56 109 112 176 134 49 16 231 3 293 -21z m1211 -692 c23 -12 10 -36 -40
-76 -39 -30 -103 -66 -108 -60 -17 18 -76 101 -73 102 2 2 29 8 60 15 31 7 62
19 69 27 13 15 55 12 92 -8z m-633 -382 c0 -15 -18 -31 -26 -23 -7 7 7 37 17
37 5 0 9 -6 9 -14z"/>
<path d="M6137 13690 c-21 -17 -48 -57 -130 -195 -10 -16 -27 -50 -38 -75 -10
-25 -26 -56 -33 -70 -35 -63 -106 -288 -121 -385 -18 -122 -18 -133 8 -149 27
-18 54 -13 61 12 3 10 10 49 16 87 14 93 54 240 86 323 33 82 117 248 144 282
l20 25 0 -126 c0 -115 -21 -371 -36 -443 -3 -15 -17 -53 -31 -83 -24 -52 -24
-55 -7 -74 66 -73 126 46 150 296 15 155 20 262 19 401 0 135 -2 154 -19 173
-24 26 -56 27 -89 1z"/>
<path d="M3982 13158 c-17 -21 -32 -90 -32 -145 0 -57 50 -329 80 -438 29
-104 93 -255 155 -365 75 -134 140 -188 175 -145 12 14 5 55 -9 55 -23 0 -146
228 -199 370 -21 58 -44 132 -50 165 -6 33 -23 116 -37 184 -26 127 -31 181
-17 181 10 -1 66 -77 87 -120 10 -19 30 -51 45 -70 15 -19 42 -62 61 -95 18
-33 53 -89 78 -124 25 -36 60 -88 76 -117 17 -29 49 -84 72 -122 23 -38 51
-91 60 -118 15 -40 23 -50 45 -52 20 -2 31 4 43 22 15 23 15 28 -10 81 -14 32
-45 87 -69 124 -24 36 -51 82 -61 101 -10 19 -36 60 -59 90 -43 56 -72 101
-109 169 -56 99 -186 296 -223 336 -42 46 -81 58 -102 33z"/>
<path d="M7010 11749 c-61 -9 -149 -51 -182 -85 -99 -103 -150 -181 -164 -251
-5 -25 -2 -33 15 -43 35 -18 54 -4 89 70 37 80 121 171 180 196 50 21 157 33
207 23 63 -14 118 -32 140 -46 42 -28 77 -6 67 43 -5 29 -32 45 -127 73 -80
23 -160 31 -225 20z"/>
<path d="M8061 11416 c-1 -11 2 -17 5 -13 3 3 4 12 1 19 -3 8 -6 5 -6 -6z"/>
<path d="M5877 11370 c-80 -22 -217 -103 -268 -157 -68 -73 -139 -212 -139
-271 0 -39 22 -57 49 -42 12 6 21 15 21 20 0 24 61 140 99 187 85 108 256 194
391 196 64 1 86 -3 150 -31 83 -36 108 -39 117 -16 12 32 -16 63 -84 95 -60
28 -80 32 -168 35 -75 2 -117 -2 -168 -16z"/>
<path d="M4803 10923 c-19 -7 -16 -47 5 -66 27 -24 66 -36 189 -57 186 -31
309 -5 274 58 -8 14 -29 17 -138 18 -118 1 -223 16 -293 42 -14 5 -31 7 -37 5z"/>
<path d="M5130 10719 c-93 -48 -128 -59 -209 -67 -71 -8 -95 -27 -75 -59 9
-15 25 -18 85 -17 80 1 151 21 277 79 74 34 82 47 62 86 -16 28 -54 22 -140
-22z"/>
<path d="M3144 2560 c-211 -55 -344 -187 -344 -342 0 -46 22 -104 53 -136 12
-13 47 -36 77 -50 49 -24 67 -26 171 -27 l116 0 86 43 c270 134 309 438 65
515 -69 22 -134 21 -224 -3z"/>
<path d="M5435 1150 c-55 -9 -69 -13 -165 -58 -106 -48 -180 -143 -180 -229 0
-63 62 -148 134 -185 34 -17 53 -20 130 -16 74 4 106 11 171 38 90 38 169 85
202 121 34 37 55 106 47 155 -18 125 -164 200 -339 174z"/>
<path d="M10030 2706 c-36 -13 -82 -32 -102 -43 -62 -31 -167 -125 -220 -196
-28 -37 -52 -66 -55 -64 -2 3 -23 33 -46 68 -51 76 -110 119 -204 148 -61 18
-77 19 -138 10 -81 -13 -120 -31 -192 -88 -133 -106 -206 -314 -154 -435 12
-27 20 -50 19 -51 -2 -2 -60 -5 -129 -8 -136 -6 -222 -28 -291 -73 -21 -13
-40 -24 -44 -24 -17 0 -106 -99 -132 -148 -68 -128 -64 -201 16 -281 26 -25
65 -52 87 -60 22 -8 64 -27 93 -44 59 -33 60 -27 -15 -107 -90 -96 -126 -164
-146 -275 -19 -111 -14 -134 47 -202 34 -37 75 -69 112 -87 55 -27 63 -28 154
-23 88 5 149 21 271 71 14 6 16 -5 15 -101 -1 -99 1 -113 27 -168 56 -119 118
-159 247 -159 70 0 95 4 140 25 63 29 162 116 216 190 19 27 39 49 43 49 5 0
30 -30 56 -67 27 -38 68 -86 92 -107 79 -71 192 -89 283 -46 42 20 67 36 149
100 45 35 96 115 116 183 9 31 19 57 22 57 3 0 38 -18 77 -39 168 -92 328 -80
511 39 55 36 69 51 96 106 26 54 31 75 30 134 -1 85 -16 123 -71 178 -35 35
-41 45 -29 53 8 5 17 9 20 9 50 1 195 37 257 64 183 79 241 140 250 266 4 61
1 75 -27 135 -31 67 -44 82 -113 131 -46 32 -179 71 -273 79 -103 9 -102 9
-57 63 61 73 102 153 102 198 0 92 -83 197 -183 230 -118 40 -333 12 -468 -61
-35 -19 -70 -35 -76 -35 -9 0 -13 25 -12 90 0 67 -5 106 -21 152 -23 71 -44
98 -113 148 -64 46 -141 51 -237 16z m177 -87 c84 -41 120 -126 110 -255 -4
-41 -14 -89 -23 -107 -18 -33 -100 -139 -154 -198 -33 -36 -46 -70 -36 -94 14
-39 56 -12 189 123 50 50 95 92 99 92 4 0 36 19 73 41 123 78 317 122 430 99
62 -13 123 -59 152 -113 22 -43 4 -88 -66 -170 -68 -80 -111 -115 -194 -156
-65 -33 -114 -74 -117 -101 -8 -57 12 -63 87 -26 126 62 325 79 458 38 102
-31 159 -71 190 -131 31 -63 32 -99 0 -161 -23 -46 -32 -53 -127 -100 -180
-89 -406 -123 -566 -85 -73 17 -115 6 -120 -31 -4 -30 15 -42 120 -70 177 -49
268 -110 290 -195 10 -40 9 -54 -6 -92 -27 -70 -51 -94 -139 -137 -148 -71
-240 -74 -356 -9 -98 55 -133 90 -176 178 -21 44 -45 81 -52 81 -7 0 -19 -10
-27 -22 -17 -26 -8 -96 19 -147 19 -39 19 -103 -1 -171 -13 -43 -29 -67 -78
-115 -34 -33 -87 -73 -119 -89 -50 -25 -65 -28 -112 -23 -44 4 -64 13 -100 43
-48 39 -92 97 -114 152 -18 44 -10 186 14 231 24 47 13 81 -25 81 -19 0 -33
-7 -40 -20 -14 -26 -47 -135 -56 -184 -4 -22 -21 -55 -38 -75 -17 -20 -51 -62
-75 -94 -227 -301 -562 -137 -435 213 32 90 77 148 139 179 40 20 46 27 43 49
-3 24 -8 28 -53 33 l-50 6 -65 -61 c-35 -34 -69 -66 -75 -72 -22 -23 -112 -83
-149 -98 -58 -24 -161 -46 -217 -46 -62 0 -113 25 -162 79 -41 46 -46 78 -26
173 17 79 30 98 142 212 l102 104 75 12 c159 23 276 59 295 90 11 18 -4 59
-26 71 -16 8 -33 8 -63 0 -22 -6 -58 -13 -78 -16 -20 -2 -78 -19 -128 -36
-117 -40 -154 -37 -282 25 -99 47 -138 82 -138 121 0 55 34 121 94 180 79 78
151 113 264 127 146 18 358 -7 402 -47 26 -23 59 -18 72 10 17 39 -2 68 -58
90 -69 26 -107 57 -139 116 -24 44 -27 58 -21 104 16 136 115 261 242 306 141
49 314 -40 354 -182 18 -63 22 -182 7 -230 -17 -56 -12 -68 35 -76 47 -7 54 7
63 127 8 109 33 172 101 260 57 75 87 101 169 146 118 65 184 76 252 43z"/>
<path d="M9800 1865 c-190 -40 -354 -144 -418 -262 -45 -84 -45 -152 -1 -214
42 -59 72 -84 135 -114 90 -43 159 -56 294 -56 115 0 134 3 220 31 174 58 280
122 315 191 22 42 30 139 15 185 -15 45 -71 131 -103 157 -12 10 -56 35 -97
55 -71 35 -81 37 -185 39 -65 1 -137 -4 -175 -12z"/>
</g>
</svg>
