<?xml version="1.0" encoding="UTF-8" standalone="no"?>
<svg
   version="1"
   width="229.7"
   height="264.6"
   viewBox="0 0 172.3 198.4"
   id="svg3"
   xmlns="http://www.w3.org/2000/svg"
   xmlns:svg="http://www.w3.org/2000/svg">
  <defs
     id="defs3" />
  <path
     d="M86 1.3c-1.2.5-2.9 1.8-3.9 3.1a27.6 27.6 0 0 0-2.9 4.4l-.9 1.6-1.2 3-1.2 2.7-.2.7-1.5.4c-2.3.5-5.2 1.9-6.7 3.2l-.6.4-.3-.4a61.3 61.3 0 0 0-9.3-12C56.1 7 55.3 7 54 7.8c-1 .7-2 2.4-2.3 4.6-.3 1.7-.3 6.7 0 8 .8 4 1.1 5.2 1.6 6.6.5 1.3 1.8 4 2.6 5.2.5.8.5 1 .3 1.3l-.3.8-.6 1.9a34.7 34.7 0 0 0-1.6 7l-.5 4.7a169 169 0 0 1-1.8 15.8l-.4 2.6-.4 1.8-.5 2.6a181.6 181.6 0 0 1-1.8 8.3l-.5 2.4-3.1-1.8-4.2-2.6a22.2 22.2 0 0 1-2.8-2c-1.6-.8-2-1.6-3.4-6a78 78 0 0 1-.7-2.6c-.8-3-1.2-4-1.5-4.4-.8-.7-2-.2-2.6 1-.3.8-.9 3.6-.9 4.5 0 .8-.2.9-1 .7-.6-.3-2.5-.8-4.4-1.3-1.7-.4-4.2-.6-5-.3-.8.2-1 .5-.8 1.3.2 1 .6 1.3 2 1.7 2.5.7 4.6 1.8 2.7 1.3-1.4-.3-4-.7-5-.7-1.4 0-2.7.3-3.3.8-.6.3-.6 1 0 1.8.6.9 1 1 2.8 1.6l1.5.6h-.6c-1 0-3.4.3-4.3.7-1 .4-1.4 1-1.2 1.9.3 1.2 1 1.5 5.6 2.1l3.4.7.7.2-.5.1-1.3.2c-2.2.2-5 1-5.9 1.5-.8.5-1.3 1-1.3 1.3 0 .4.3 1 .7 1.3l1.2.4c.7.2 1.4.3 4.7.3H24l1 .1v.6c.2.7.8 1.5 1.6 2 .8.4 1.3 1 3.5 4.8l2.8 4.5 3.4 5.2a47.2 47.2 0 0 1 3.6 5.9l1.1 2 .8 1.5v2l-.5 6.1a57.8 57.8 0 0 0 .7 13.8c.1.7 2.5 7.7 3 9a48.2 48.2 0 0 0 5.1 10.1l-.3.1c-.8 0-2.5 1.1-3.5 2.2-.4.5-.6.7-.6.5-.5-1.5-.8-2-1.3-2.5-.7-.6-1.6-1-2.4-1.2-.9-.2-2.6.5-3.5 1.5a4 4 0 0 0-1.2 2.6l-.1 1-.6-.2c-.7-.3-2.6-.5-3-.4a5.8 5.8 0 0 0-3.8 3.2l-.3 1.3c0 .5.4 1.4.9 2l.2.3-.8.2c-.8.2-1.9.7-2.7 1.5-.4.3-.6.6-.8 1.4-.4 1.3-.2 2.3.6 3.4a5 5 0 0 0 2.6 1.2c.6.1.7.3.4.6-.3.4-1 2-1 2.6-.3 1.6 1.7 3 3.8 2.8l1.3-.4c1-.4 1-.3 1.1 1 .1 1.4.3 1.9 1.3 2.6.6.4.6.4 1.6.3l1.4-.2c.1-.2.4-.3.5-.3.3 0 1.5-1 2.5-2l1-1.1.5.7c.6.9 1.3 1.6 1.8 1.9.7.3 2 .4 3 .2s1.1-.3 1.7-1a7 7 0 0 0 1.3-2.8c0-.3 0-.3 1.2.1.7.3 1.4.4 2 .4 1 0 1-.1 0 1.9l-.5 1.3-2.8 4.2a17 17 0 0 1-3.2 3.3 16 16 0 0 1-10.4 3.7c-2.5 0-4-.4-6.7-2a40.1 40.1 0 0 1-9-8v-.7c.5-1.4.5-1.7.4-3-.3-1.8-.8-4-1.3-4.9a16.2 16.2 0 0 0-3.6-4.7l-1.3-1.1c-.5-.5-2-1.3-2.3-1.3-.2 0-.8.6-.8.8l.8 1.4c1 1.5 2.3 4.2 2 4.4 0 .2-.4-.3-.8-1.3-1.4-2.8-4.8-6.6-6-6.6-.4 0-.9.8-.8 1.1a51 51 0 0 0 1.5 3.4l-1.2-.8a20 20 0 0 0-4.8-3.4c-2.5-1.3-2.8-1.3-3.1-.7-.3.5.3 2.1 1.3 3.7 1.2 1.8 1.5 2.3 2.8 3.8l1.3 1.8-.5-.2c-.7-.4-1.7-1.4-3-2.8-.8-1-1-1-1.2-1l-.6.5c-.1.3 0 1.7.3 2l.6 1.2a17.5 17.5 0 0 0 3.2 5l-.7-.5c-.9-.8-1.4-1.2-1.6-1.2-.3 0-1 .6-1 .8 0 .3.9 1.8 1.7 2.9a19.2 19.2 0 0 0 5 4.7c1.1.8 2.5 1.3 5.4 2 2.5.7 2.6.7 4.3.6h1.8l2 2 2.8 2.6a188.1 188.1 0 0 1 6.8 4.6l1.2.5a23 23 0 0 0 13.8.2 38 38 0 0 0 7-3.9c.8-.6 3-2.6 3.9-3.8a43.7 43.7 0 0 0 7.2-14.3c1-3.9 1-4.3 1-5.7.1-1.3.2-1.3.9-1 .5.2.6.4 1.2 1.6a38.5 38.5 0 0 0 3.4 5.6c.5.6.4.6-.9.6-1-.1-1.3 0-2 .2-1.7.5-3.4 2.3-3.4 3.6 0 .9.3 1.8.7 2.2.4.4.9 1 .9 1.2l-1 .3c-2 .6-3.1 1.3-3.8 2.3-1 1.5-1.3 2.2-1.3 3.3 0 .9 0 1 .4 1.5.6.8 1.4 1 3 1l1.3.1-.5 1c-.7 1.4-.8 1.8-.3 3 .6 1.8 1.3 2.2 3.1 2 1.4 0 2-.3 3.4-1.8l1.3-1.2.2.4c.5 1.1 1 1.7 2 2.1 1.8 1 3.3.6 4.8-1.1l.8-.9.6.6c1.2 1.1 3.2 1.7 6.1 1.8 1.8 0 2.5 0 4.4-.4 1.9-.3 3.4-1 5.4-2.3l1.8-1.1c1.2-.7 3.8-2.4 4.8-3.2l2.1-1.6c2.1-1.6 3.1-2.5 4.5-3.9 1.3-1.4 1.6-1.9 1.6-3.1 0-.6-.6-1.8-1.6-3l-3-3.4a32.1 32.1 0 0 1-3.6-5.7c-.6-1.1-.7-1.4-.5-1.5l1.5-.4a21 21 0 0 0 4-1.2l2.9-1.3a21 21 0 0 1 2.5-1.2 94.4 94.4 0 0 0 7.9-2.6 31.8 31.8 0 0 0 5.6-2l1.3-.6 3.8-1.6 8-4 .7-.4.5.5c1.2 1 2.7 1.3 4.6.6l1.3-.3s.1.3 0 .8c0 1 .3 2.7.7 3.3l1 1c.8.5 1 .6 1.8.6s1.1-.1 1.7-.4c1-.5 2-1.4 2.6-2.3l.4-.5.8.8a4.7 4.7 0 0 0 3.8 1.8c1.3 0 1.7-.2 2.6-1l1-1c.4-1 .4-2.4-.2-4.3a13 13 0 0 1-.4-1.4l.5.1c1.2.7 4 .7 5.6 0 1.8-.6 2.5-1.4 2.5-3 0-.8-.4-1.5-1.2-2.4-.4-.6-2.5-1.9-3.3-2.2-.7-.3-.9-.5-.5-.6a8 8 0 0 0 3.7-2.5c.7-.9.3-3.7-.7-4.7-1-.9-4.3-1.5-6.4-1h-.6l.3-.7.5-1 .1-1.4c0-1.1 0-1.4-.3-2-.8-1.3-2.1-2.3-3.3-2.3-1.2 0-3.2 1-4.3 2.3l-.5.6-.8-.7c-1.2-1.3-1.7-1.5-3-1.7-.7 0-.8 0-1.6.4-.5.4-1 .8-1 1l-.5.8-.5.9-.4.6c-.2-.2-.5-1-1-2.7-1.4-4-2.3-6-3.7-7.8-1-1.3-3.1-2.6-4.2-2.6a2 2 0 0 0-1.4.6c-.4.5-.7 2.2-.7 4.7a55.7 55.7 0 0 0-.2 6.2c0 4.3 0 4-1.6 4.4l-2 .6c-.4.3-.8.4-.9.3 0 0 0-1.1.3-2.4a44.5 44.5 0 0 0-.5-17.7l-.2-1.7.7-.8a107.7 107.7 0 0 1 9.3-9.3c1.5-1.1 1.8-1.1 4.3-.2l2.2 1 4.7 1.4c1.2.2 2 .1 2.4-.4.4-.6.2-.8-1.7-2.8l-1.3-1.6 2.8.8c1 .2 2.1.2 2.5-.1 1-.8.6-2-1-3a81.7 81.7 0 0 0-4.5-2.8l3.3.5c1.3.5 3.5.4 4 0 .4-.6.4-1-.1-1.8-.7-1-1.3-1.5-3.2-2.4a23.2 23.2 0 0 1-2.4-1.2l-.6-.3-1.1-.4c-1.4-.3-.9-.5 1.1-.4 2.4.2 2.6.2 4 0 1.2 0 1.6-.3 1.6-.8 0-1-.8-2-2.2-2.8-1.2-.6-2-1-3.4-1.4-3.2-1-5-1.1-8.8-.8-1.5 0-1.4.2-1.1-1.5.2-1 .2-2 0-3.2-.2-1.3-1.5-3.2-2.4-3.5-.9-.4-1.9-.1-2.1.5l-1 3.7c-.5 2.3-2 5.8-3 6.5-.2.3-1 .6-1.6.9l-6.8 2.4-2.8.7c-2.2.5-2.5.5-2.9 0l-2-2.6-3.3-4.4-1.8-2.2.4-.2 1-.4.5-.2 1-.3 1.2-.6c2.4-.9 4-1.7 6.3-3.2 2.2-1.4 2.6-1.8 5-4.1a74.6 74.6 0 0 0 6.7-7.7c.3-.3.6-.7 1.3-2.2a17.8 17.8 0 0 1 1-2l.2-.5.1-.4.2-.3c.2-.2 1-2.9 1.2-3.8.4-2 .2-6.2-.3-9.1-.5-2.4-2-5.4-4.4-8.5-.8-1-3.2-2.5-5-3.1-3.1-1-8.3-.7-11.4.7-1.6.7-2 .8-3.2.5a48.6 48.6 0 0 1-10.6-3.9 86 86 0 0 1-7.7-4.3 37.6 37.6 0 0 1-6.3-4.9c-1.3-1-1.5-1.4-1.4-2l.2-1.3a35.8 35.8 0 0 0 .6-4.4L90 13c.4-1.5.5-3 .4-5.6-.1-4.4-.2-4.7-1-5.5-.3-.4-.8-.7-1-.8-.5-.2-1.4-.1-2.3.2zm2.4 1.3c.4.5.5 1.2.6 4.6.1 3.2 0 4.2-.4 6.2a55 55 0 0 1-1.2 8.3c0 .4 1.1 1.6 2.2 2.4l1.6 1.3a58.7 58.7 0 0 0 8.6 6 167 167 0 0 0 9.2 4.3c1.8.8 3 1.1 4.5 1.4l.6.3.3.2-.5.3-.7.3c-.4.2-.3.9.1 1.2.3.2.4.2 1.5-.5a16.7 16.7 0 0 1 13-2.6c.4 0 .8 0 1.6.5l1.5.6a15 15 0 0 1 4.3 4c1.4 2.2 2.2 4.9 2.8 9.4l-.1 4.4c-.3 1.4-.8 2.6-2.3 5.6l-.2.6c0 .4-1 2-1.8 3.2a78.5 78.5 0 0 1-8.4 8.8l-.7.7c-.8.7-3.7 2.7-4.8 3.2l-2.2.9-1.7.7a38.8 38.8 0 0 1-17.7 3.5 32.8 32.8 0 0 1-19-5.6l-2.7-1.4a69.7 69.7 0 0 1-9.7-7.2l-1.9-2.4c-.8-1.2-1.2-1.7-1.6-1.9-.4-.2-.4-.2-.6 0-.2.3-.1.5.2 1l1.3 1.8c.9 1.3 1 1.6 3.4 3.7a41.2 41.2 0 0 0 9.8 6.7l2.7 1.4a28.1 28.1 0 0 0 9.6 4 35.6 35.6 0 0 0 15.7.5 171.5 171.5 0 0 1 4.6-.8c1.8-.5 1.8-.5 2.4.3l3.6 4.7c1.8 2.3 3 4 4.3 6l1.9 2.8 2.2 3.7 1.1 2.1 1.4 3 1.1 2.5a49.8 49.8 0 0 1 2 29.6l-.3 1.8c-.2 1.4-1 4.2-1.4 4.8-.2.3.1 1 .5 1l.5-.1c.5-.6 1.4-3.4 1.8-5.7.1-1 1.6-2 3.9-2.7 2.4-.7 2.3-.5 2.3-5 .2-7.3.3-9.8.7-10.5.4-.7 1.9-.2 3.3 1.3 1.3 1.3 2.4 3.4 3.7 7.4 1.2 3.6 1.6 4.6 2.2 5.9l1.8 4.8c.3.7.3 1.2.3 3 0 2.1 0 2.2-.5 3-.7 1.5-2.8 3-11 7.5a143 143 0 0 1-16 7l-1.7.6-2.9 1a42.5 42.5 0 0 0 5.3-5.7c.2-.5.2-.6 0-.7-.4-.6-.5-.6-1.7.6a34 34 0 0 1-8.6 7.4c-.8.5-3.4 1.7-5.3 2.4-1.6.7-3 1-4.6 1.2-.9 0-1 .1-1.2.5l-.2.6a36.5 36.5 0 0 0 8 11.7c1.9 2.3 1.8 2.6-.5 5a52.5 52.5 0 0 1-12.4 9 14.5 14.5 0 0 1-8.7 2.5c-1.4 0-2 0-3.2-.4-1.6-.4-2.7-.8-2.8-1.2-.2-.4.5-1 1.8-1.5l1.6-.7c.5-.4 2-1.3 3.6-2.1 2.2-1.2 3-2.2 3-3.3 0-.8-.1-.9-2.2-1.6a38.7 38.7 0 0 1-12.7-7c-1.4-1.1-4-3.8-4.8-5a24.9 24.9 0 0 1-3.2-6l-.3-.6c0-.3-.6-1.1-.8-1.1l-.5.3-.2.4-1.5-1a53.6 53.6 0 0 1-15.4-15.8 58 58 0 0 1-6.8-18.2c-.5-2.5-.5-2.6-.4-6.5a95.7 95.7 0 0 1 .6-10l.2-3.1-.5-.8a66.3 66.3 0 0 1-3.3-5.9l-1.5-2.3-1.4-2.1-2-3.2a60.1 60.1 0 0 1-2.2-3.3l-1.2-2a16.6 16.6 0 0 1-1.2-2.2 7 7 0 0 1-.7-1c-.4-.8-1.3-1.8-1.6-1.8l-.7-.4c-.5-.5-.5-.6-.4-1 .2-1.4-.4-1.5-6.5-1.6-4 0-4.6 0-5.3-.2a4 4 0 0 1-.7-.3c0-.2 1.2-.7 2.3-1 2.3-.6 3.1-.7 8.3-1.2 1 0 1.3-.2 1.3-.9 0-.4.3-.3-3.8-1.4l-4.8-1c-2.5-.3-3.1-.5-3.9-.8-.9-.3-.2-.8 1.4-1 1.3-.3 2.8-.2 4.5 0l2.8.3c.8 0 2 .2 2.7.4 1.1.2 1.4.2 1.6 0 .3-.2.2-.9-.1-1-.5-.3-5-1.8-6.4-2.2-4.1-1.2-5-1.5-5.1-1.9-.2-.3 0-.4.7-.6 1.6-.4 6 .3 10.4 1.8 2 .6 2 .6 2-.3 0-.5-.9-1.4-2.3-2l-1.8-1c-1-.6-1.7-1-3.6-1.5l-1.6-.7c0-.3 2.3-.2 3.8.1 2.6.6 6 1.6 6.1 2l.4 1.1.8 2c.6 1 .7 1 1 1 .8 0 .8-.2.2-1.4-.8-1.4-1-2.2-1-4-.2-2.4.4-5.4 1-5.8.2-.1.5.6.8 1.8l1.8 5.8c1 3 1.3 3.8 1.8 4.3.5.6 2.7 2.1 6 4.2l3.3 2a70 70 0 0 0 3.9 2.6c.6.6.7.6 1.1.1.3-.3.3-.4 0-.7l-.3-.6a83.5 83.5 0 0 1 .8-5.8 130.5 130.5 0 0 0 3.8-23 376.9 376.9 0 0 0 .6-6.5c.4-4.3.7-6 1.5-9.2a17 17 0 0 1 1.7-4.2c.3-.2.2-.7-.2-1.2-.3-.3-.4-.6-.4-.7l-.3-.5A29 29 0 0 1 53 12.1c.5-2.2 1.4-3.6 2.4-3.6a50.9 50.9 0 0 1 4.2 4.3c.5.5 3.5 4.4 4 5.4 2.5 3.7 3.5 5.7 3.9 7.4 0 .5.4.8.8.6.6-.1.7-.6.2-1.9l-.6-1.6c-.2-.5-.2-.5.1-1 .4-.4.5-.6 1.6-1.2a20 20 0 0 1 4.5-2c1.1-.3 1.7-.4 3.4-.4l2.2-.1c.2-.2.2-.7 0-1-.3-.2-1-.3-2-.2-.7 0-.7-.2.7-3.5C79.6 10.4 81 8 83 5.5c1-1.5 1.7-2 3-2.8 1.1-.6 2-.6 2.5-.1zm52 74.9c.2.1.5.6.8 1.1.4.9.5 1 .5 2.2 0 .7 0 1.5-.2 1.8a19.9 19.9 0 0 0 0 4.8c.2.3.7.3 1 .1v-.7c-.1-.6 0-1 .4-1.1 1-.3 4-.4 6-.2 1 .2 3.5.8 5 1.3 1.3.5 2.8 1.5 2.8 2 0 .2-1.4.3-3 .2-1.6-.2-7.6-.2-8-.1l-.4.5c-.2.3-.2.4 0 .7.3.4.8.6 2.6.9.9 0 2 .3 2.4.5l1.1.2 1.8.8c3 1.5 4 2.2 4.4 2.6l.3.5-.4.1-1.5-.1a132 132 0 0 0-5.7-1.2 13 13 0 0 0-3.3-.6c-1.2 0-1.6.7-1 1.6.3.4 1 .7 2.6 1 1.5.4 2.8 1 4.9 2.3 3 1.8 3.4 2.2 2 2.2-1-.1-3.6-.9-6.3-1.9-3.7-1.4-4.1-1.5-4.3-1v.6c0 .4.9 1 2 1.4 1.7.7 4.4 2.5 5.4 3.6l.8 1c0 .4-2.5-.2-4.6-1-5.1-2.1-5.6-2.2-6.7-1.7-1.7.8-4.9 3.7-9 8.2l-1.8 2-.2-.3-.5-1.5-.8-2.4-1-2.5a43.1 43.1 0 0 0-3.4-6.6 99.5 99.5 0 0 0-3.7-6.3l1.2-.3 2.9-.7c1.7-.5 5.9-1.9 8.1-2.9 1.7-.7 2-1 3-3 1-2.2 1-2.5 2.2-6.9.4-1.7.6-1.8 1.5-1.2zm20.6 51.9c.4.2 1 .6 1.1.8.4.6.5 2 .2 2.7-.2.9-1.3 2.7-2 3.5l-.9 1c-.3.6-.1 1.5.4 1.5l1-.7c.8-.9 1.8-1.5 2.6-1.8.8-.3 3.2-.2 4.3 0 1.1.5 1.3.6 1.7 1.5.6 1.4.5 2-.7 3-.7.7-1 1-2.3 1.3l-1 .4-.8.3c-1.2.4-2 .8-2 1.2 0 .4 0 .4 1.8.5 2 .2 3.6.8 5 2 .9.8 1.2 1.3 1.2 2 0 1.4-1.7 2.3-4.5 2.3-1.4 0-1.5 0-2.5-.5l-1.8-1c-.8-.6-1.3-.6-1.4 0-.1.2 0 .4.1.6a15 15 0 0 1 1.6 2.4c.4.8.6 1.4.7 2.7.1.8 0 1-.3 1.6-.6.9-1.4 1.3-2.5 1.3-1.7 0-2.9-.8-3.7-2.4-.4-.9-.5-1.2-.6-2.3 0-.7-.2-1.4-.3-1.6-.3-.4-.7-.5-.8-.2-.2.2-.2 1.6 0 2.7 0 .9 0 1-.2 1.6-.5.8-1.6 2-2.4 2.4-1.2.6-2.2.4-3-.5-1.1-1.3-.7-4.3.9-6 .5-.6.6-.7.5-1l-.4-.6a235.6 235.6 0 0 0-2 1.8c-.6.6-1.8 1.2-3.2 1.6-.8.2-1 .2-1.7 0-.8-.3-1.3-.7-1-1l1.1-.7c2-1 4.4-2.7 5.6-4 .5-.4.9-1 1.2-1.7l.5-1 .2.6c.2.7.5 1.2 1 1.7.7.6 1.1.8 2.5 1 1 .1 1.1.1 2.6-.3 2.7-.8 3.5-1.3 4.6-3 .4-.5.5-.8.5-1.4 0-1.7-1.3-3-3.6-3.4-2-.3-4 0-5.5 1-1 .6-1.1.8-1.7 2l-.5.8v-.8c0-2.2-.7-4.9-2-7.9a4.1 4.1 0 0 1 .1-3.6c.6-1 .9-1.5 1.5-2 .8-.6 2-.3 3.3.7.9.8 1 1.3.7 3.6-.2 1-.2 2-.2 2.3 0 .4 0 .4.4.4.6 0 .8-.4 1-2.3.1-1.9.4-2.7 1-3.5 1-1 2.5-2 3.6-2l1 .4zM42.8 154c.4.1.8.4 1 .6.8.8 1.1 3 .7 4.4-.2 1-.2 1.2.1 1.4.5.1 1-.3 1-1 .2-.8.6-1.6 1.3-2.5 1.2-1.6 2.6-2.4 4-2.2.4.1.6.2 1.3 1.2.5.5 1 1.1 1 1.3.2.2 0 1.6-.4 2l-1.1 1.5c-.5.7-.7 1-.7 1.4 0 .7.5.9 1 .3.6-.6 1.4-.9 2.8-1 2.3-.3 2.8 0 3.1 1.3.6 2 .6 2.9.2 2.9l-.7.5c-.8.7-1.8 1.2-3 1.5l-1.2.2-.3.5c-.3.3-.3.9 0 1h.6c.8 0 1.8.6 2.7 1.4 1.2 1 1.3 1.4.7 3.3-.6 1.7-1.5 2.2-3.1 1.7-1.4-.4-2-.9-2.6-2.3l-.6-1.3c0-.2 0-.2-.2-.2-.3 0-.8.4-.8.6 0 .4.4 1.5.8 2 .4.9.4 2-.2 3.1-.5 1.2-.8 1.4-2 1.5-2 .1-2.7-.3-3.6-2-.5-1.1-.6-1.3-.6-2.4v-1.1l-.5-.1c-.7-.2-.8 0-.8 1.4.1 1 .1 1.2-.3 1.7-.7 1.2-1.4 2-2.3 2.5-1.5 1-2.7 1-3.5.2-.4-.4-.4-.5-.4-1.4 0-.8 0-1.1.4-1.8.5-1.2 1.1-1.9 1.9-2.2.9-.4.9-1 0-1.5-.5-.1-.5 0-1.2.5l-1.1 1.4c-.8 1.2-2.3 2-4 2-.8 0-1 0-1.6-.4-.8-.6-.9-.9-.4-2 .6-1.6 1.7-2.4 4.2-3 .5-.2.6-.2.6-.6 0-.8-.4-.8-2.2-.3-1.3.4-1.7.5-2.4.4-1.7-.2-2.7-.7-3-1.6-.8-1.9.7-3.5 3.5-3.6 1.2 0 4.2.4 4.5.6.3.3.7.2 1.1-.2.6-.4.5-.8-.1-.9-3.4-.6-4.4-1-5.4-2-.4-.5-.5-.7-.5-1.2 0-1.2 1-2.5 2.3-3.2.6-.3.8-.3 1.8-.2.8 0 1.3.2 1.8.4.7.4 1.6 1.5 1.7 2.2.1.6.4.9.8.7.5-.1.6-.6.3-1.2-.7-1.4-1-3.3-.7-4.2.2-.7.8-1.5 1.3-1.7 1.4-.8 2-.8 3-.3zm12.4 5.3l.6.7-1.2.2h-1l.3-.7c.3-.8.3-1 .5-1l.8.8zm6.7 5.8l2.1 1.6c.6.3.8 1 .6 2.6a29.3 29.3 0 0 1-1.3 6.5 24 24 0 0 1-2.4 5.8c-2.2 4.6-4.7 8-7.2 10a22 22 0 0 1-17.4 5.1 17.3 17.3 0 0 1-7.9-3.9l-2.4-1.7c-.9-.6-4.3-4-5.6-5.5-.6-.7-1-.8-1.6-.1-.4.5-.5.5-1.3.5-.5 0-1.1 0-1.4-.2-2.4-.5-4.7-1.1-5.3-1.4a11 11 0 0 1-3.3-2.3C6 181 4.7 179.4 5 179.4l1.2.4c1.3.5 2.1.6 2.7.2l.3-.5-.6-.7-1.1-1-1.4-1.2-1.5-1.6c-.6-.9-1.3-2-1.2-2.1l1.4.9c2 1.4 4 2.8 4.5 3 1.1.6 1.8.6 2.2 0 .1-.4 0-.5-1.8-2.3a47.3 47.3 0 0 1-5.9-6.8 12 12 0 0 1-1.3-2.4c.1-.2 2.1.8 3 1.6a28 28 0 0 1 5.7 5.3c1 1.6 1.7 2.5 2 2.5.3 0 .5-.3.5-.7 0-.3-1-3-2.2-5.3-.7-1.7-.8-1.8-.5-1.6.6.3 2.4 2.7 3.1 4l.8 1.5.8 1.4c.2.4.4.6.7.6l.4.2c.2.3.6.3.9 0 .2-.3.2-.4 0-1.6-.1-1.4-.4-2.4-1-3.8-.3-.4-.4-.8-.4-.9.1-.1 1.4 1 2 2 .5.4 1 1.3 1.3 1.8l.8 1.2c.3.4.8 2.7 1 4.2v2c-.2.5-.3.5-.6.5-.4-.1-.8 0-.9.3 0 .4.6 1.4 1.2 1.8l1.8 1.7a68.8 68.8 0 0 0 7.2 6c1 .7 1.1.7 2 1.1 1.4.8 2.1 1 3 1.2l1.3.3c1.1.2 2.6 0 5.3-.4 2-.4 5-1.6 6.1-2.5 1.5-1.1 3.1-2.5 3.7-3.1a28 28 0 0 0 4.4-6.6l1.2-2.6c1-2.2 2-5.8 2.6-8.9.1-1 .2-2 .1-3.2l.1-1.7 2 1.5zm-3.7 3.2a22.6 22.6 0 0 0-.3 1.9c0 .1-.3 0-1.1-.6l-1.1-1 .7-.5 1.3-.8.6-.4v1.4zm14.7 9.4l1.3.9a46.5 46.5 0 0 0 12.5 7.9l-1.4.1h-1.4l-.2.4c0 .3.4.9.8 1a4.2 4.2 0 0 1 2.3 1.8c0 .1-2.1 1.4-3 1.8-1.3.7-2.2.4-3.7-1.4a10 10 0 0 0-1.1-1.1l-.3.4c-.1.4 0 .6.2 1.3.6 1.2.7 2 .4 3a3.6 3.6 0 0 1-1.6 2.3c-1 .7-1.6.8-2.7.3-.9-.3-1-.4-1.4-1-.5-1-.6-2.5 0-3.1.3-.6.3-1-.1-1.2-.5-.2-.8 0-1 .4a9.2 9.2 0 0 1-2.2 3.6c-1.4 1.4-1.9 1.6-3.3 1.6-1 0-1.2 0-1.6-1-.3-.7-.3-1 .3-2.1a8.3 8.3 0 0 1 2.4-3c.7-.5 1-1 .7-1.5-.2-.4-.5-.4-1.5.2-2.2 1.3-3 1.6-4.4 1.3-1.1-.2-1.3-.4-1.3-1.4 0-1.4 1.2-3 2.8-3.7 1.1-.6 3-1 3.8-1 .8 0 1.4-.4 1.4-.8s-.3-.7-1.2-1a3 3 0 0 1-1.9-1.2c-.6-.8-.6-1.5-.2-2.2.5-.8 1.5-1.6 2.5-1.9.7-.2 3.2 0 4 .3zm17 9.7c.2.2 0 .5-.6 1s-1.5 1-1.6 1l-1-1.5.9-.2 1-.4c.1-.2.7-.2 1.2.1zm-9 5.3c0 .3-.2.5-.3.4-.1-.1.1-.5.2-.5l.2.1z"
     id="path1" />
  <path
     d="M85.8 7c-.3.2-.7.8-1.8 2.7l-.5 1-.5 1c-.5 1-1.5 4-1.7 5.4-.2 1.7-.2 1.9.1 2.1.4.3.8.2.9-.1l.2-1.3c.2-1.3.8-3.3 1.2-4.5a28 28 0 0 1 2-4L86 9v1.8a49.8 49.8 0 0 1-1 7.3c-.3.8-.3.8 0 1 .9 1.1 1.7-.6 2-4a49.3 49.3 0 0 0 0-8c-.3-.5-.7-.5-1.2-.1zM55.7 14.4c-.3.3-.5 1.3-.5 2a26.2 26.2 0 0 0 3.3 11.2c1 2 2 2.7 2.5 2.1.1-.2 0-.7-.2-.7a19 19 0 0 1-3.4-7.5l-.6-2.6c-.3-1.8-.4-2.5-.2-2.5.1 0 1 1 1.2 1.6l.6 1 .9 1.4 1 1.7 1.2 1.6 1 1.7.8 1.7c.2.5.3.7.6.7s.5 0 .6-.3c.2-.3.2-.4-.1-1.1-.2-.5-.6-1.3-1-1.8a20 20 0 0 1-.8-1.4 11 11 0 0 0-.9-1.2l-1.5-2.4-3-4.7c-.7-.6-1.2-.8-1.5-.5zM98 34.1c-.8.2-2 .8-2.5 1.2-1.4 1.5-2.1 2.6-2.3 3.5 0 .4 0 .5.2.6.5.3.7 0 1.2-1a6.3 6.3 0 0 1 2.6-2.7c.7-.3 2.1-.4 2.8-.3 1 .2 1.7.4 2 .6.6.4 1 .1 1-.6-.1-.4-.5-.6-1.8-1a7.4 7.4 0 0 0-3.2-.3zM112.7 38.8v.2l.1-.3v.1zM82.2 39.4c-1.1.3-3 1.5-3.8 2.2-1 1-2 3-2 3.8 0 .6.4.8.8.6l.3-.3c0-.3.8-2 1.4-2.6a8 8 0 0 1 5.4-2.7 4 4 0 0 1 2.1.4c1.2.5 1.5.6 1.7.2.1-.4-.3-.8-1.2-1.3-.9-.4-1.1-.4-2.4-.5-1 0-1.6 0-2.3.2zM67.2 45.7c-.3 0-.3.6 0 1 .4.2 1 .4 2.7.7 2.6.4 4.3 0 3.8-.8-.1-.2-.4-.2-2-.3-1.6 0-3-.2-4-.5l-.5-.1zM71.7 48.5c-1.3.7-1.8.9-2.9 1-1 0-1.3.4-1 .8 0 .2.3.3 1.2.2a9 9 0 0 0 3.8-1c1-.5 1.2-.7.9-1.3-.2-.4-.8-.3-2 .3zM44 162.6c-3 .8-4.8 2.6-4.8 4.8 0 .7.3 1.5.7 2 .2 0 .7.4 1 .6.8.3 1 .4 2.5.4H45l1.2-.6c3.8-1.9 4.3-6.1.9-7.2-1-.3-1.9-.3-3.1 0zM76 182.3c-.8.2-1 .2-2.3.9-1.5.6-2.5 2-2.5 3.2 0 .8.8 2 1.8 2.5.5.3.8.3 1.9.3A9.2 9.2 0 0 0 80 187a3 3 0 0 0 .6-2.2c-.2-1.8-2.3-2.8-4.7-2.5zM140.2 160.6l-1.4.6c-.8.4-2.3 1.7-3 2.7l-.8 1-.7-1c-.7-1-1.5-1.7-2.8-2.1-.9-.2-1-.3-2-.1-1 .1-1.6.4-2.6 1.2-1.9 1.5-3 4.4-2.2 6l.3.8-1.8.1c-2 0-3.1.4-4 1l-.7.4a7 7 0 0 0-1.9 2c-.9 1.8-.8 2.8.3 4l1.2.8 1.3.6c.8.5.8.4-.2 1.5a6.7 6.7 0 0 0-2 3.9c-.3 1.5-.3 1.8.6 2.8.5.5 1 1 1.6 1.2.7.4.8.4 2.1.3 1.2 0 2.1-.3 3.8-1 .2 0 .2 0 .2 1.4s0 1.6.4 2.4c.8 1.6 1.6 2.2 3.4 2.2 1 0 1.4 0 2-.3.9-.4 2.3-1.7 3-2.7l.6-.7.8 1 1.3 1.4c1.1 1 2.7 1.3 4 .7.5-.3.9-.5 2-1.4.7-.5 1.4-1.6 1.7-2.6 0-.4.2-.8.3-.8l1 .6c2.4 1.3 4.6 1.1 7.2-.6a3 3 0 0 0 1.3-1.4c.4-.8.5-1 .4-2 0-1.1-.2-1.6-1-2.4-.4-.5-.5-.6-.4-.7l.3-.2c.7 0 2.8-.5 3.6-.9 2.6-1 3.4-2 3.5-3.7 0-.8 0-1-.4-1.9-.4-1-.6-1.1-1.5-1.8-.7-.5-2.5-1-3.9-1.1-1.4-.1-1.4-.1-.8-.9.9-1 1.5-2.1 1.5-2.8 0-1.2-1.2-2.7-2.6-3.2a9.7 9.7 0 0 0-6.5.9l-1.1.5c-.1 0-.2-.4-.2-1.3 0-1 0-1.5-.3-2.1-.3-1-.6-1.4-1.5-2-1-.7-2-.8-3.4-.3zm2.5 1.2c1.2.6 1.7 1.8 1.6 3.6 0 .5-.2 1.2-.4 1.5-.2.4-1.4 2-2.1 2.7-.5.5-.7 1-.5 1.3.2.6.8.2 2.6-1.7l1.4-1.3 1-.5c1.8-1.1 4.5-1.7 6-1.4 1 .2 1.8.8 2.2 1.6.3.6 0 1.2-1 2.3a7.4 7.4 0 0 1-2.7 2.2c-.9.5-1.6 1-1.6 1.4-.1.8.2 1 1.2.4a9.8 9.8 0 0 1 6.4-.5c1.4.4 2.2 1 2.7 1.8.4.9.4 1.4 0 2.3-.3.6-.5.7-1.8 1.3a12.7 12.7 0 0 1-8 1.2c-1-.2-1.5 0-1.6.5 0 .4.2.6 1.7 1 2.5.6 3.7 1.5 4 2.7.2.5.2.7 0 1.3-.4 1-.8 1.3-2 1.9-2 1-3.3 1-5 .1-1.3-.8-1.8-1.3-2.4-2.5-.3-.6-.7-1.1-.8-1.1l-.3.3c-.3.4-.1 1.3.2 2 .3.6.3 1.5 0 2.4-.2.6-.4 1-1 1.6l-1.7 1.3c-.7.3-1 .4-1.6.3-.6 0-.9-.2-1.4-.6a5.6 5.6 0 0 1-1.6-2.1 6 6 0 0 1 .2-3.2c.3-.7.2-1.2-.3-1.2-.3 0-.5.1-.6.3a15 15 0 0 0-.8 2.6c0 .3-.3.7-.5 1l-1 1.3c-3.2 4.2-8 2-6.2-3 .5-1.2 1.1-2 2-2.4.6-.3.6-.4.6-.7 0-.4-.1-.4-.7-.5h-.7l-1 .8-1 1a10 10 0 0 1-2 1.4c-.9.3-2.3.6-3.1.6a3 3 0 0 1-2.3-1.1c-.6-.6-.6-1.1-.4-2.4.3-1.1.5-1.4 2-3l1.5-1.4 1-.2c2.2-.3 3.9-.8 4.1-1.3.2-.2 0-.8-.3-1h-1l-1 .3-1.8.5c-1.6.5-2.1.5-4-.4-1.3-.6-1.9-1.1-1.9-1.7 0-.7.5-1.7 1.4-2.5 1-1 2-1.6 3.6-1.8 2-.2 5 .1 5.7.7.3.3.8.2 1-.2.2-.5 0-.9-.8-1.2-1-.4-1.5-.8-2-1.6-.3-.6-.4-.8-.3-1.5a5.3 5.3 0 0 1 3.4-4.3 4 4 0 0 1 5 2.6c.2.9.3 2.5 0 3.2-.2.8-.1 1 .5 1 .7.2.8 0 1-1.7 0-1.5.4-2.4 1.3-3.7a6 6 0 0 1 2.4-2c1.7-.9 2.6-1 3.5-.6z"
     id="path2" />
  <path
     d="M137 172.3c-2.6.6-5 2-5.8 3.7-.6 1.2-.6 2.1 0 3 .6.8 1 1.2 1.9 1.6 1.2.6 2.2.8 4 .8 1.7 0 2 0 3.1-.5 2.5-.8 4-1.7 4.5-2.6.3-.6.4-2 .2-2.6-.2-.6-1-1.8-1.5-2.2a10 10 0 0 0-1.3-.8c-1-.5-1.2-.5-2.6-.5l-2.5.1z"
     id="path3" />
  <path
     style="fill:#ffd42a;stroke-width:0.396399;stroke-linecap:square"
     d="m 170.95715,255.47205 c -1.36885,-0.76316 -1.89286,-1.74508 -1.89286,-3.54698 0,-2.06689 0.88084,-3.86363 2.58127,-5.26527 0.98967,-0.81576 1.41003,-1.43854 1.25089,-1.85325 -0.43565,-1.13527 -2.08796,-0.6899 -4.08659,1.10151 -2.60485,2.33478 -4.26975,3.12186 -6.72651,3.17995 -1.68481,0.0398 -2.25991,-0.1297 -3.09387,-0.91206 -1.40657,-1.31955 -1.33699,-2.9897 0.22263,-5.3443 1.7357,-2.62043 3.0712,-3.48284 6.80982,-4.39748 3.01143,-0.73675 3.24943,-0.86988 3.36599,-1.8829 0.11059,-0.96111 -0.007,-1.0901 -0.99226,-1.0901 -0.61473,0 -2.36408,0.35644 -3.88745,0.79208 -2.27707,0.65119 -3.01722,0.71315 -4.16093,0.34832 -2.43977,-0.77823 -3.96777,-1.91149 -3.96777,-2.94273 0,-1.27164 2.20319,-3.70517 4.1588,-4.59358 1.99627,-0.90689 6.23809,-0.96831 8.71834,-0.12624 1.97192,0.66949 2.58244,0.52605 2.58244,-0.60673 0,-0.46004 -0.6361,-1.0906 -1.68248,-1.66781 -2.1817,-1.20349 -2.79424,-2.44253 -2.22562,-4.50192 0.56284,-2.03845 2.94025,-4.39623 4.78104,-4.74156 1.83949,-0.34509 4.0968,0.68751 5.13869,2.35067 0.60573,0.96693 0.7403,1.79818 0.6469,3.99572 -0.11591,2.72697 -0.10086,2.7748 0.87305,2.7748 0.87972,0 1.02908,-0.22256 1.3301,-1.982 0.70354,-4.11206 2.21018,-6.30718 5.45893,-7.95344 2.47085,-1.25208 3.3267,-1.21718 4.73704,0.19316 0.96242,0.96242 1.15871,1.48468 1.15871,3.083 0,2.00454 -0.33771,2.69786 -2.65093,5.44233 -0.72219,0.85682 -1.31306,1.8825 -1.31306,2.2793 0,1.31776 1.3739,0.76253 3.53968,-1.43049 2.61883,-2.65177 6.00249,-4.28064 9.3631,-4.50734 2.14958,-0.145 2.52971,-0.0511 3.66669,0.90559 0.69767,0.58705 1.26849,1.32287 1.26849,1.63515 0,0.73085 -3.7781,4.47323 -5.5639,5.51129 -0.94764,0.55085 -1.41195,1.13426 -1.49851,1.88289 -0.069,0.59661 -0.0628,1.08475 0.0137,1.08475 0.0765,0 1.15421,-0.35676 2.39482,-0.7928 5.42831,-1.9079 11.39264,-0.1478 11.39264,3.36201 0,1.60332 -0.68775,2.19811 -4.16219,3.59965 -2.46135,0.99287 -3.23655,1.11425 -6.86248,1.0745 -3.32152,-0.0364 -4.13106,0.0682 -4.31906,0.55811 -0.28635,0.74623 0.31105,1.13791 2.89379,1.89725 5.26325,1.54742 6.27768,5.05333 2.07796,7.18148 -3.72305,1.88662 -6.65598,1.05323 -9.31402,-2.64657 -1.27232,-1.77097 -1.52562,-1.95397 -1.93317,-1.39661 -0.34085,0.46614 -0.3609,1.11382 -0.0734,2.37034 0.66,2.88421 0.13546,4.4006 -2.14607,6.20404 -2.59755,2.05325 -3.59493,2.03931 -5.60947,-0.0784 l -1.57738,-1.65817 0.23895,-3.09863 c 0.21864,-2.83525 0.17671,-3.09862 -0.49335,-3.09862 -0.71575,0 -1.04343,0.58081 -1.97301,3.49711 -0.23088,0.7243 -0.97202,2.01418 -1.64698,2.86639 -2.37627,3.00028 -4.81795,4.05586 -6.81121,2.9446 z m 16.05671,-14.0947 c 4.09989,-1.36819 5.74254,-2.51738 6.24021,-4.36559 0.70331,-2.61188 -0.43703,-4.9752 -3.21895,-6.67117 -1.75445,-1.06959 -7.02062,-1.15926 -9.56633,-0.1629 -3.98853,1.56107 -6.25131,4.01392 -6.25131,6.77643 0,4.02688 6.86908,6.40127 12.79638,4.42323 z"
     id="path7"
     transform="matrix(0.75010885,0,0,0.75010885,0,-0.03940282)" />
  <path
     style="fill:#ffd42a;stroke-width:0.396399;stroke-linecap:square"
     d="m 199.20061,210.16258 c -1.75944,-1.75945 -1.50597,-4.58719 0.67434,-7.52285 1.74796,-2.35353 0.3244,-3.37396 -1.70025,-1.21876 -2.26151,2.40733 -6.95514,3.90743 -8.06011,2.57603 -0.36391,-0.43849 0.0764,-0.85914 2.25252,-2.15195 3.57085,-2.12141 6.39867,-4.49233 7.46465,-6.25858 0.78404,-1.29911 0.88916,-1.35677 1.12409,-0.61659 0.4245,1.33749 2.4693,2.76591 4.36676,3.05045 2.7784,0.41664 6.96515,-1.01335 8.94752,-3.05605 1.35143,-1.39256 1.56928,-1.86225 1.56928,-3.38352 0,-1.41048 -0.22599,-1.99248 -1.12134,-2.88783 -3.25606,-3.25606 -10.72031,-2.31971 -13.13289,1.64746 l -0.69819,1.14808 -0.20255,-2.49131 c -0.1114,-1.37021 -0.69632,-3.82915 -1.29982,-5.46429 -1.50483,-4.07724 -1.68614,-6.35321 -0.64086,-8.04452 1.84866,-2.99119 3.14971,-3.27188 5.60183,-1.20856 l 1.25206,1.05355 -0.27765,3.70336 c -0.23597,3.14743 -0.1886,3.70337 0.31555,3.70337 0.9956,0 1.39732,-0.86434 1.81993,-3.91575 0.32428,-2.34147 0.62754,-3.15884 1.5206,-4.09849 2.24843,-2.36572 4.42313,-2.88027 6.21527,-1.47058 0.83213,0.65456 1.0437,1.1582 1.04074,2.4775 -0.004,1.76528 -1.58284,4.98983 -3.1215,6.37506 -0.87988,0.79214 -1.14199,2.77647 -0.42525,3.21944 0.22744,0.14057 1.04788,-0.25026 1.82319,-0.8685 2.83368,-2.25962 3.42206,-2.50723 5.96276,-2.50939 1.34843,-0.001 2.90071,0.16862 3.44951,0.37728 1.01783,0.38698 2.22499,2.23194 2.22499,3.40056 0,1.14933 -2.71561,3.09599 -6.05811,4.34272 -2.56686,0.95742 -3.25728,1.38062 -3.25728,1.99663 0,0.66552 0.36845,0.82234 2.47915,1.05515 2.90339,0.32026 6.10143,1.90371 7.33028,3.62946 0.75734,1.0636 0.78022,1.26126 0.25474,2.20042 -0.71279,1.27394 -2.64384,1.97323 -5.50557,1.99372 -1.72488,0.0123 -2.59413,-0.22992 -4.1622,-1.16006 -3.71066,-2.20109 -4.43446,-1.46166 -2.19837,2.24583 2.12432,3.52218 2.32022,6.03835 0.58897,7.56505 -1.25478,1.10652 -3.1131,1.15154 -4.81055,0.11654 -1.75378,-1.06935 -2.44842,-2.28001 -2.95353,-5.14759 -0.40364,-2.2915 -1.13193,-3.32567 -1.84189,-2.61549 -0.15411,0.15416 -0.2314,1.43078 -0.17174,2.83693 0.10722,2.52745 0.0891,2.57669 -1.5856,4.31314 -2.28337,2.36753 -3.49419,2.62221 -5.05348,1.06293 z"
     id="path8"
     transform="matrix(0.75010885,0,0,0.75010885,0,-0.03940282)" />
  <path
     style="fill:#ffd42a;stroke-width:0.396399;stroke-linecap:square"
     d="m 49.438652,239.2036 c -1.774943,-1.24321 -0.545253,-5.84989 1.898943,-7.11383 1.373636,-0.71034 1.526507,-1.57129 0.387258,-2.181 -1.011945,-0.54158 -1.472099,-0.26455 -3.709528,2.23323 -1.394946,1.55727 -2.244065,2.13891 -3.633178,2.48869 -5.519147,1.38974 -5.27869,-4.28254 0.259523,-6.12204 2.037264,-0.67667 2.767275,-1.49119 2.012727,-2.24574 -0.301317,-0.30132 -1.183761,-0.23339 -3.046475,0.23451 -2.014581,0.50605 -2.961948,0.56462 -4.08794,0.25274 -1.930036,-0.53459 -2.33518,-0.82628 -2.777649,-1.99984 -0.486117,-1.28932 0.0175,-2.54975 1.373397,-3.43731 1.258278,-0.82367 5.610367,-0.92532 8.220461,-0.19201 1.037583,0.29151 1.78425,0.30446 2.279296,0.0395 1.081024,-0.57855 0.896942,-1.50478 -0.353875,-1.78057 -5.361329,-1.1821 -7.234287,-2.27221 -7.234287,-4.21055 0,-1.76238 2.59848,-4.28521 4.412857,-4.28437 1.90345,8.8e-4 3.926388,1.1662 4.754039,2.73859 0.946971,1.79907 1.239465,2.04937 1.910336,1.63475 0.485399,-0.29999 0.461178,-0.77085 -0.170045,-3.30571 -0.638581,-2.5644 -0.665486,-3.12629 -0.203142,-4.24249 0.695248,-1.67848 3.159977,-2.87216 4.770921,-2.31058 2.085878,0.72714 2.559056,1.6851 2.5831,5.22955 0.01944,2.86513 0.104129,3.22827 0.752909,3.22827 0.491382,0 0.902907,-0.49651 1.255401,-1.51467 1.066401,-3.08022 3.988173,-5.81872 6.208148,-5.81872 1.129723,0 3.455422,2.68331 3.455422,3.98674 0,0.47412 -0.624329,1.71254 -1.387398,2.75205 -1.322755,1.80196 -1.854511,3.96399 -0.974946,3.96399 0.226847,0 0.895771,-0.35582 1.486497,-0.79071 0.651003,-0.47927 2.032869,-0.89007 3.508361,-1.04296 2.279226,-0.23617 2.474789,-0.19046 3.069622,0.71737 0.349422,0.53328 0.741239,1.76073 0.870703,2.72765 0.231454,1.72862 0.206671,1.77647 -1.480325,2.85856 -0.943649,0.60528 -2.430906,1.29164 -3.305018,1.52525 -1.942393,0.51911 -2.580295,1.00895 -2.580295,1.98137 0,0.55398 0.288825,0.74426 1.129723,0.74426 1.085205,0 4.000856,1.77612 4.656121,2.83637 0.875852,1.41715 -0.448755,4.93086 -2.006209,5.32176 -2.225554,0.55858 -4.406524,-0.94689 -5.68622,-3.92507 -0.311171,-0.72417 -0.721886,-1.07184 -1.165319,-0.98644 -0.941581,0.18133 -1.070297,1.26934 -0.326546,2.76022 1.125546,2.25621 0.477161,5.79659 -1.177901,6.4317 -1.155227,0.4433 -3.157507,0.25865 -4.061538,-0.37456 -1.275854,-0.89364 -2.46129,-3.45082 -2.46129,-5.3094 0,-1.44388 -0.09747,-1.60139 -0.990999,-1.60139 -0.907669,0 -0.990998,0.1474 -0.990998,1.75298 0,3.65059 -5.094532,7.99593 -7.444644,6.34984 z m 12.821805,-12.95871 c 2.470142,-1.67562 3.385245,-2.97376 3.630563,-5.15022 0.174913,-1.55182 0.05354,-1.93595 -0.975661,-3.08782 -1.030593,-1.15344 -1.466764,-1.33661 -3.539864,-1.48656 -4.570346,-0.33059 -8.800918,2.50708 -9.145812,6.13459 -0.311388,3.27508 1.561396,4.76295 6.095312,4.84255 1.677704,0.0295 2.370741,-0.19111 3.935462,-1.25254 z"
     id="path9"
     transform="matrix(0.75010885,0,0,0.75010885,0,-0.03940282)" />
  <path
     style="fill:#ffd42a;stroke-width:0.396399;stroke-linecap:square"
     d="m 87.455535,260.97925 c -0.401133,-0.88039 -0.344832,-1.29248 0.365557,-2.67569 0.461845,-0.89927 1.65203,-2.46859 2.644855,-3.48739 1.180668,-1.21156 1.722151,-2.06863 1.565253,-2.4775 -0.34685,-0.90387 -1.360764,-0.7505 -3.832361,0.57971 -2.320814,1.24906 -3.301844,1.40568 -4.929185,0.78697 -1.169441,-0.44462 -1.310435,-1.46336 -0.436443,-3.15347 1.216054,-2.35159 3.269518,-3.39182 9.032321,-4.57552 1.777772,-0.36516 1.438523,-1.67323 -0.668156,-2.57626 -1.955904,-0.83839 -3.187737,-2.35795 -2.828649,-3.48934 0.129599,-0.40832 0.780913,-1.26436 1.447366,-1.9023 1.110263,-1.06276 1.450842,-1.15989 4.06713,-1.15989 2.250708,0 3.071673,0.16789 3.876669,0.7928 0.561699,0.43604 2.305248,1.77388 3.874558,2.97299 l 2.85329,2.1802 -2.49576,0.24705 c -3.691845,0.36546 -6.050282,1.85613 -7.030774,4.44388 -0.558914,1.4751 0.319869,3.39528 2.01108,4.3943 1.599437,0.94481 4.453074,0.63996 7.370474,-0.78739 2.71731,-1.32946 3.44291,-2.41268 3.1798,-4.74698 -0.14634,-1.29837 -0.0791,-1.68442 0.24663,-1.41606 0.2463,0.20291 1.87485,1.09658 3.61901,1.98592 3.08297,1.57201 3.12984,1.61713 1.68469,1.62203 -1.30897,0.004 -1.48649,0.1202 -1.48649,0.96932 0,0.60232 0.28532,1.05485 0.76011,1.20554 0.98522,0.3127 2.80748,1.748 2.80748,2.21132 0,0.56818 -4.05897,2.74621 -5.12549,2.75032 -0.63421,0.002 -1.53078,-0.60567 -2.62444,-1.78007 -2.1497,-2.30842 -2.7625,-2.33427 -2.3497,-0.0991 0.17112,0.92658 0.32667,2.54728 0.34567,3.60155 0.0313,1.73687 -0.10872,2.04814 -1.49127,3.31516 -1.3246,1.2139 -1.71304,1.36792 -2.94548,1.16792 -2.679293,-0.43478 -3.251087,-1.66578 -2.783574,-5.99265 0.09263,-0.8573 -0.05636,-1.21517 -0.546881,-1.31361 -0.471237,-0.0946 -0.971785,0.45197 -1.662739,1.8155 -1.931249,3.81114 -4.095938,5.63141 -6.696935,5.63141 -1.065444,0 -1.441577,-0.21535 -1.817616,-1.04067 z"
     id="path10"
     transform="matrix(0.75010885,0,0,0.75010885,0,-0.03940282)" />
  <path
     style="fill:#f2f2f2;stroke-width:0.396399;stroke-linecap:square"
     d="m 113.56839,261.60316 c -2.40685,-0.48161 -5.15319,-1.54681 -5.15319,-1.99873 0,-0.20236 1.20407,-0.96029 2.6757,-1.68428 7.11263,-3.49919 10.15274,-5.6562 10.62524,-7.53878 0.37334,-1.48752 -0.19492,-1.98327 -3.69659,-3.22486 -7.45991,-2.64508 -13.6747,-6.56237 -19.190884,-12.09634 -3.559602,-3.57109 -4.015838,-4.21538 -6.274124,-8.86025 -2.324937,-4.78196 -2.914344,-5.49912 -3.795392,-4.61808 -0.422134,0.42214 -5.849379,-3.45999 -10.30124,-7.36851 -3.013202,-2.64544 -7.519385,-7.82243 -10.425282,-11.97721 -4.509315,-6.4473 -8.672768,-16.70398 -10.555906,-26.00447 -1.080495,-5.33637 -1.082595,-5.64788 -0.133928,-19.86972 l 0.450683,-6.75637 -2.777836,-4.93741 c -1.527809,-2.71557 -4.398209,-7.43472 -6.378668,-10.48699 -1.980458,-3.05228 -4.624345,-7.2442 -5.875304,-9.31539 -4.002847,-6.62743 -4.925362,-7.91788 -6.091378,-8.52085 -0.839116,-0.43392 -1.174883,-0.92873 -1.266322,-1.86613 -0.164992,-1.69143 -0.682795,-1.80725 -8.448818,-1.88975 -3.488314,-0.037 -6.671453,-0.19688 -7.073642,-0.35516 -0.660259,-0.25986 -0.634334,-0.33197 0.267028,-0.74266 1.463368,-0.66675 6.34315,-1.59008 9.977808,-1.88796 4.219561,-0.3458 4.630483,-0.48395 4.4826,-1.50694 -0.15071,-1.04254 -2.427595,-1.79843 -9.239391,-3.06732 -6.754714,-1.25825 -7.893112,-1.56402 -7.454805,-2.00233 0.731409,-0.73141 5.530428,-0.81884 10.762803,-0.19608 6.935376,0.82545 6.883424,0.82748 6.728653,-0.26228 -0.111332,-0.7839 -1.050593,-1.19549 -7.757355,-3.399268 -4.196878,-1.379057 -7.630687,-2.651514 -7.630687,-2.827686 0,-1.158267 5.903924,-0.570787 12.033877,1.197459 4.721575,1.361984 5.407692,1.418566 5.407692,0.445969 0,-1.481911 -4.942548,-4.744024 -9.513583,-6.27902 l -2.180196,-0.73213 1.472921,-0.122218 c 1.432023,-0.118828 6.791921,1.124585 9.267297,2.149864 0.92356,0.382529 1.400598,0.978337 1.930707,2.411404 0.995932,2.692336 1.697306,3.687135 2.599585,3.687135 0.997456,0 0.987318,-0.628019 -0.04792,-2.968337 C 39.96,93.806291 39.804571,87.822601 40.71556,85.622244 l 0.574408,-1.387398 2.442841,7.587487 c 2.7798,8.634087 2.455871,8.182307 8.801698,12.275777 2.064803,1.33194 5.883819,3.80287 8.486703,5.49097 4.364998,2.8309 4.772362,3.01477 5.245576,2.36761 0.382537,-0.52315 0.399879,-0.83802 0.06817,-1.23769 -0.58256,-0.70195 0.137761,-6.15084 1.667018,-12.610179 2.102351,-8.880002 2.980934,-15.043594 4.745224,-33.289556 0.896707,-9.273582 1.906142,-14.308507 3.577103,-17.842094 L 77.44717,44.602633 75.513823,41.026894 C 71.82203,34.198892 70.016967,26.623796 70.487576,19.933839 c 0.281209,-3.997516 0.902308,-6.167657 2.150723,-7.514722 l 0.95405,-1.029436 1.787765,1.737646 c 5.451608,5.298771 12.378138,15.279922 14.134885,20.368412 0.380174,1.101191 0.77743,1.585597 1.30032,1.585597 1.037762,0 1.178019,-1.471672 0.347515,-3.646316 -0.65675,-1.719668 -0.652564,-1.780902 0.182467,-2.66975 0.470046,-0.500341 2.290003,-1.583292 4.044351,-2.406557 2.526879,-1.18579 3.943978,-1.574346 6.819328,-1.869798 4.71016,-0.483982 4.75778,-0.500789 4.22736,-1.491876 -0.30606,-0.571879 -0.82966,-0.798679 -1.84386,-0.798679 -1.33068,0 -1.40063,-0.06296 -1.15542,-1.039901 0.52748,-2.101648 3.81772,-8.611555 5.65102,-11.1807911 2.76642,-3.8769583 4.25284,-5.3942998 6.10068,-6.2275595 l 1.64827,-0.7432659 0.74407,0.9188891 c 0.64388,0.7951514 0.74365,1.6202496 0.74091,6.1272644 -0.003,5.018536 -0.69639,12.219311 -1.63915,17.023714 l -0.45166,2.301754 1.34428,1.388221 c 2.02184,2.087909 8.86942,7.350563 12.44888,9.567488 5.12801,3.176015 16.12185,8.157053 20.39217,9.239192 1.56275,0.39601 1.6772,0.49672 0.991,0.871955 -1.56355,0.854982 -1.76133,1.766165 -0.45456,2.094146 0.62706,0.157382 1.84578,-0.268152 3.8649,-1.349486 3.87182,-2.073553 6.7686,-2.866415 10.55379,-2.888625 5.64547,-0.03313 8.61517,1.050046 12.2162,4.45575 4.06999,3.849223 5.90921,9.12366 5.93119,17.009168 l 0.0138,4.954991 -1.71875,3.765793 c -0.94531,2.071186 -2.01559,4.364463 -2.37839,5.096168 -1.7358,3.500737 -12.10815,14.21805 -16.77702,17.335005 -4.24202,2.83198 -13.91507,6.58299 -20.54957,7.96869 -4.75135,0.99238 -15.92374,0.98482 -20.61276,-0.0139 -6.80756,-1.45002 -13.46345,-4.59733 -22.792955,-10.777902 -5.663618,-3.75201 -9.878127,-7.393885 -12.043696,-10.407301 -1.783852,-2.48226 -2.678022,-3.160146 -3.320684,-2.517484 -0.728523,0.728523 2.353478,5.096997 5.912572,8.380571 5.125058,4.728306 8.367886,6.833246 18.568983,12.053246 5.12355,2.62176 7.67387,3.67984 10.63995,4.4143 8.48076,2.1 14.56899,2.20321 24.61651,0.41729 3.03958,-0.54028 5.67485,-0.89064 5.85616,-0.77859 0.18131,0.11206 2.13232,2.55416 4.3356,5.4269 11.91425,15.53444 17.61068,26.66252 20.42883,39.90811 0.56786,2.66895 0.71679,5.18229 0.71643,12.09018 -4e-4,7.97495 -0.0957,9.1954 -1.11372,14.27037 -0.61231,3.05227 -1.49758,6.76397 -1.96728,8.2482 -0.70939,2.24165 -0.76172,2.75566 -0.30905,3.03542 1.27177,0.786 2.28695,-0.91491 3.39114,-5.68175 0.69912,-3.01814 1.89238,-4.18646 5.50304,-5.38801 1.98953,-0.66207 2.67106,-1.08152 2.81568,-1.73288 0.10494,-0.47266 0.35569,-4.8186 0.55723,-9.65764 0.20154,-4.83905 0.48269,-8.98638 0.62479,-9.21628 0.86587,-1.40101 4.42351,1.25532 6.30081,4.70453 0.59324,1.08999 1.95334,4.44146 3.02243,7.4477 1.0691,3.00626 2.68304,7.3389 3.58654,9.62811 2.87176,7.27619 2.60826,11.13304 -0.96041,14.0573 -3.44579,2.82356 -14.68922,8.92604 -23.43159,12.71771 -4.25036,1.84342 -14.27565,5.72973 -14.7807,5.72973 -0.13897,0 0.55471,-0.84731 1.54152,-1.8829 4.23878,-4.44832 5.03265,-5.79657 3.71161,-6.3035 -0.40894,-0.15693 -1.93681,1.0569 -4.65769,3.70036 -3.98881,3.87531 -7.21591,6.34081 -10.45555,7.98801 -3.12803,1.59046 -7.87085,3.31712 -10.4083,3.78921 -3.40786,0.63403 -3.69631,1.15652 -2.25923,4.09237 1.68989,3.45229 4.98945,8.34554 7.42619,11.01301 4.74826,5.19787 4.81812,5.53872 1.77014,8.6358 -4.39624,4.46704 -9.38398,8.1638 -16.28471,12.06973 -5.20235,2.94462 -10.29648,4.09109 -14.46857,3.25626 z M 94.376246,67.187184 c 2.143557,-0.32194 4.128974,-1.556898 4.128974,-2.568275 0,-1.080453 -1.014754,-1.02772 -3.627331,0.1885 -1.166254,0.54292 -2.600474,0.98887 -3.187161,0.990998 -1.197244,0.0043 -1.694523,0.536574 -1.347147,1.441819 0.161466,0.420774 0.567775,0.543158 1.323423,0.398635 0.599736,-0.114702 1.818894,-0.317956 2.709242,-0.451677 z m 3.831675,-4.036958 c 0.163515,-0.09324 0.297299,-0.426573 0.297299,-0.740735 0,-0.314163 -0.133784,-0.576036 -0.297299,-0.581946 -1.704354,-0.06157 -7.589655,-0.777442 -8.122844,-0.988037 -0.840572,-0.332005 -1.420485,0.830294 -0.74919,1.501588 1.000547,1.000547 7.497305,1.593053 8.872034,0.80913 z m 6.205799,-3.883151 c 1.41091,-2.499999 3.47408,-4.044077 6.42715,-4.810095 1.69313,-0.439191 2.25749,-0.430577 3.65329,0.05577 2.95267,1.028819 4.03556,0.422994 2.20503,-1.23361 -1.3429,-1.215309 -6.5164,-1.305153 -8.89344,-0.154449 -2.6117,1.264303 -4.04772,2.597374 -5.15782,4.788059 -1.07051,2.112535 -1.23474,3.368649 -0.47602,3.640809 0.73226,0.26267 0.89932,0.09228 2.24181,-2.286487 z M 126.43143,51.1671 c 0.53955,-0.854704 1.61159,-2.034983 2.38231,-2.622843 1.27557,-0.972923 1.62373,-1.049257 3.87987,-0.850665 1.3632,0.119994 2.98461,0.342944 3.60313,0.495447 1.01789,0.250972 1.11191,0.188 0.991,-0.663707 -0.16766,-1.180973 -1.68151,-1.93144 -4.47841,-2.220105 -1.6933,-0.174765 -2.49578,-0.0412 -3.93324,0.654665 -2.349,1.137131 -5.45999,5.301975 -4.78101,6.400584 0.47411,0.767127 1.39599,0.296245 2.33635,-1.193376 z M 81.460051,39.4616 c 0,-0.316099 -0.547423,-1.385852 -1.216493,-2.377227 -0.669071,-0.991376 -1.63206,-2.82871 -2.13997,-4.082965 -0.980533,-2.421357 -2.751502,-9.980405 -2.4167,-10.315209 0.109351,-0.109351 0.516552,0.375153 0.904897,1.076676 0.38834,0.701522 1.840541,3.000023 3.22711,5.10778 1.386573,2.107757 3.03915,4.857968 3.672401,6.111581 0.819818,1.622952 1.378011,2.279296 1.938456,2.279296 1.282641,0 0.968689,-1.838207 -0.808488,-4.733734 -0.877568,-1.429809 -3.153847,-5.007778 -5.058395,-7.951043 -2.890917,-4.467587 -3.639853,-5.371885 -4.534784,-5.475486 -0.878671,-0.101718 -1.119999,0.06728 -1.338331,0.937182 -0.97961,3.90308 1.938447,14.286004 5.258216,18.709578 0.987569,1.315933 2.512081,1.748979 2.512081,0.713571 z M 109.7709,25.666853 c 0.0779,-0.272524 0.51739,-2.059519 0.97667,-3.9711 0.45928,-1.91158 1.46751,-4.676465 2.2405,-6.144188 l 1.40544,-2.668588 -0.23177,3.567593 c -0.12747,1.962176 -0.47822,4.724786 -0.77944,6.139132 -0.38477,1.806591 -0.42411,2.720438 -0.13226,3.072095 0.74702,0.9001 1.40952,0.529509 2.11687,-1.184142 1.00747,-2.440707 1.36769,-14.5421592 0.45541,-15.2992803 -0.98131,-0.8144146 -1.90685,-0.026053 -3.7271,3.1746723 -2.54238,4.470525 -4.62001,11.424575 -3.94152,13.192683 0.28288,0.737179 1.41685,0.82211 1.6172,0.121123 z"
     id="path11"
     transform="matrix(0.75010885,0,0,0.75010885,0,-0.03940282)" />
  <path
     style="fill:#f2f2f2;stroke-width:0.396399;stroke-linecap:square"
     d="m 174.41165,148.54683 c -0.0959,-0.27043 -0.73211,-2.09712 -1.41372,-4.05929 -1.75941,-5.06496 -3.31203,-8.28552 -7.24232,-15.02264 -1.89482,-3.24799 -3.39715,-5.94343 -3.33851,-5.98986 0.0586,-0.0464 1.44445,-0.40202 3.0796,-0.79021 3.48425,-0.82717 10.92408,-3.41223 13.47757,-4.68296 1.48217,-0.73758 2.00175,-1.32154 3.07268,-3.45338 0.70888,-1.41113 1.84498,-4.57247 2.52467,-7.02519 0.67968,-2.45272 1.38599,-4.45949 1.56957,-4.45949 0.64575,0 1.96016,1.75641 2.33773,3.12383 0.24815,0.89874 0.24082,2.36285 -0.0209,4.18349 -0.53664,3.73234 -0.16549,6.56666 0.85988,6.56666 0.53883,0 0.7556,-0.2803 0.7556,-0.97705 0,-1.4017 1.06923,-1.79775 4.85346,-1.79775 3.87097,0 9.19824,1.19545 11.67573,2.62005 3.07615,1.76885 2.76096,1.89149 -4.1311,1.60736 -6.87971,-0.28361 -8.64925,-0.1183 -9.01792,0.84244 -0.41473,1.08077 0.78272,1.72736 4.60183,2.48489 2.59207,0.51414 4.81256,1.29059 7.36078,2.5739 6.51282,3.27991 5.73066,3.71259 -3.1876,1.76334 -6.21264,-1.35789 -7.10594,-1.4246 -7.80453,-0.58286 -0.98681,1.18903 0.0827,2.36984 2.84661,3.14294 2.83864,0.79399 5.26524,1.94883 8.57281,4.07987 3.43294,2.21182 1.8084,2.06793 -5.70766,-0.50552 -4.35976,-1.49276 -6.70599,-2.11782 -6.96757,-1.85624 -0.93074,0.93074 -0.008,1.92142 3.58477,3.848 3.42601,1.83724 7.18725,4.69784 6.75079,5.13429 -0.29415,0.29416 -3.7637,-0.72883 -7.82149,-2.30615 -2.03856,-0.79241 -4.37151,-1.44075 -5.18433,-1.44075 -2.18053,0 -4.30709,1.60655 -10.48109,7.91811 -3.03453,3.10215 -5.50783,5.33491 -5.60529,5.06017 z"
     id="path12"
     transform="matrix(0.75010885,0,0,0.75010885,0,-0.03940282)" />
  <path
     style="fill:#f2f2f2;stroke-width:0.396399;stroke-linecap:square"
     d="m 48.955311,262.14247 c -1.54813,-0.25915 -4.815161,-1.35013 -6.342389,-2.11795 -2.587954,-1.3011 -9.300497,-6.62388 -12.676025,-10.05158 -3.38258,-3.43487 -4.254803,-3.91103 -5.161942,-2.81799 -0.27141,0.32703 -0.910673,0.5946 -1.420584,0.5946 -1.641789,0 -7.677492,-1.55999 -9.39746,-2.42888 -1.693541,-0.85553 -6.7931468,-5.06522 -6.4959809,-5.36238 0.089212,-0.0892 0.9898779,0.0592 2.001479,0.32972 1.6221409,0.43386 1.9195309,0.41168 2.5191049,-0.1879 0.642175,-0.64217 0.488359,-0.86704 -2.7769468,-4.0597 -3.0460113,-2.97824 -3.9611079,-4.14683 -3.2472869,-4.14683 0.1152199,0 1.6035959,0.95476 3.3075023,2.12169 3.3994344,2.32812 4.9734034,2.92338 5.8363064,2.20723 0.306176,-0.2541 0.556682,-0.5897 0.556682,-0.74577 0,-0.15607 -1.959155,-2.38155 -4.353678,-4.94552 -4.0542824,-4.34116 -7.7896845,-9.22116 -7.3754402,-9.63541 0.3539327,-0.35393 4.8440168,2.922 7.6423802,5.57582 1.568334,1.48733 3.421031,3.59174 4.117105,4.67648 0.811492,1.2646 1.495335,1.9248 1.905908,1.84 1.014096,-0.20944 0.701009,-2.17175 -0.899042,-5.63485 -0.792057,-1.71431 -1.370805,-3.18622 -1.286105,-3.27092 0.241185,-0.24118 2.742417,3.37885 4.339412,6.28042 1.06653,1.93778 1.726021,2.70108 2.501998,2.89584 1.632728,0.40979 1.915158,-0.19574 1.414164,-3.03197 -0.242418,-1.37238 -0.552867,-2.94118 -0.689886,-3.48623 l -0.249125,-0.991 0.853987,0.991 c 2.397201,2.7818 3.913845,5.63732 4.372901,8.23324 0.635862,3.59574 0.44447,5.01028 -0.6999,5.1728 -0.519395,0.0738 -0.893021,0.40488 -0.894587,0.7928 -0.0035,0.86814 6.262186,6.90132 10.848058,10.44552 6.319179,4.88378 9.829743,6.10593 15.641932,5.44551 10.396359,-1.18132 17.609578,-7.15833 22.923853,-18.99516 2.297423,-5.1172 4.102748,-12.19814 4.102748,-16.09199 0,-1.61189 0.0926,-2.93071 0.205779,-2.93071 0.113176,0 1.451024,0.93188 2.972995,2.07083 l 2.767215,2.07084 v 2.42912 c 0,4.31244 -1.710942,10.05152 -4.954344,16.61857 -4.157436,8.41772 -7.801447,12.73849 -13.814,16.37953 -4.993489,3.02392 -12.803847,4.64719 -18.096788,3.76118 z"
     id="path13"
     transform="matrix(0.75010885,0,0,0.75010885,0,-0.03940282)" />
</svg>
